<?xml version="1.0" encoding="UTF-8" standalone="no"?>
<!DOCTYPE svg PUBLIC "-//W3C//DTD SVG 1.1//EN" "http://www.w3.org/Graphics/SVG/1.1/DTD/svg11.dtd">
<svg xmlns="http://www.w3.org/2000/svg" version="1.1" viewBox="0.00 0.00 2508.00 1254.00">
<g stroke-width="2.00" fill="none" stroke-linecap="butt">
<path stroke="#808080" vector-effect="non-scaling-stroke" d="
  M 764.96 428.63
  Q 772.19 440.09 773.96 444.34
  Q 776.67 450.85 776.95 451.24
  C 778.50 453.47 778.62 456.00 779.72 458.25
  Q 781.25 461.39 781.53 463.53
  Q 781.86 466.01 783.64 469.89
  Q 784.54 471.85 785.21 475.94
  Q 786.32 482.66 788.72 488.97"
/>
<path stroke="#002d60" vector-effect="non-scaling-stroke" d="
  M 788.72 488.97
  L 788.69 507.00"
/>
<path stroke="#003d80" vector-effect="non-scaling-stroke" d="
  M 788.69 507.00
  L 788.76 553.62"
/>
<path stroke="#808080" vector-effect="non-scaling-stroke" d="
  M 788.76 553.62
  L 789.02 613.49"
/>
<path stroke="#002d60" vector-effect="non-scaling-stroke" d="
  M 789.02 613.49
  L 789.00 631.71"
/>
<path stroke="#003d80" vector-effect="non-scaling-stroke" d="
  M 789.00 631.71
  L 788.43 713.43
  A 0.99 0.98 4.3 0 0 789.28 714.41
  Q 790.91 714.62 793.75 714.63
  Q 849.59 714.78 875.58 714.67
  Q 880.76 714.64 884.79 715.86
  Q 890.98 717.73 896.43 720.73
  Q 899.08 722.19 910.67 730.22
  Q 916.19 734.04 922.73 738.79
  Q 927.95 742.58 933.42 746.00
  Q 941.43 750.99 944.16 753.16
  Q 944.20 753.20 956.46 761.18
  Q 962.63 765.19 968.70 769.28
  Q 978.67 775.99 981.03 777.50
  Q 988.60 782.35 995.23 787.07
  Q 1003.34 792.85 1010.45 797.20
  C 1015.08 800.02 1019.11 803.38 1023.51 806.04
  Q 1025.47 807.23 1028.03 806.86
  A 1.40 1.40 0.0 0 0 1029.23 805.49
  Q 1029.31 799.56 1029.15 789.83
  Q 1029.13 789.02 1028.53 774.15
  Q 1027.86 757.83 1029.37 740.55
  Q 1029.80 735.59 1031.37 732.55
  Q 1035.77 724.04 1044.50 719.07
  C 1046.99 717.65 1050.00 716.74 1053.07 715.57
  Q 1056.55 714.25 1061.76 714.23
  Q 1115.23 713.98 1174.22 714.45
  Q 1179.70 714.49 1185.20 714.22
  C 1192.40 713.85 1196.21 714.12 1199.10 713.01
  Q 1203.45 711.34 1204.75 711.07
  Q 1207.95 710.40 1210.52 709.39
  Q 1222.16 704.84 1232.00 698.24
  Q 1245.46 689.23 1254.72 674.69
  Q 1260.73 665.24 1263.67 657.40
  Q 1265.02 653.77 1265.95 648.72
  Q 1267.09 642.46 1267.77 639.84
  C 1268.67 636.40 1268.75 632.44 1268.75 629.50
  Q 1268.77 606.62 1268.90 256.50
  Q 1268.90 249.98 1268.11 247.39
  C 1266.58 242.40 1265.56 236.48 1263.92 232.07
  Q 1260.80 223.71 1256.62 217.04
  C 1252.69 210.75 1246.80 204.57 1241.31 198.93
  Q 1227.07 184.33 1207.06 177.93
  Q 1204.34 177.06 1199.63 176.23
  C 1193.80 175.21 1188.57 173.67 1183.67 173.31
  Q 1179.68 173.02 1175.02 173.05
  Q 1155.70 173.14 1114.25 173.47
  Q 1103.87 173.55 1094.24 173.54
  Q 1087.87 173.54 832.50 173.65
  Q 822.84 173.66 812.50 173.60
  Q 761.00 173.31 709.50 173.24
  Q 696.25 173.22 691.87 173.40
  Q 688.75 173.54 685.43 174.81
  Q 682.44 175.96 678.07 176.38
  Q 673.99 176.77 670.00 178.11
  C 648.49 185.37 630.18 201.77 619.15 221.38
  Q 616.68 225.77 615.43 229.59
  Q 615.03 230.82 613.62 233.69
  Q 612.57 235.82 612.18 237.96
  Q 611.35 242.59 611.33 242.67
  C 610.64 245.32 609.48 248.67 609.34 251.86
  Q 609.29 252.95 609.31 256.75
  Q 609.40 284.83 609.38 310.75
  C 609.36 325.77 608.92 340.34 608.76 357.34
  Q 608.75 358.03 609.40 358.26
  Q 609.76 358.38 610.59 358.37
  Q 628.51 358.22 641.50 358.61
  C 646.10 358.75 653.24 360.48 658.85 360.98
  Q 661.78 361.24 666.23 361.53
  Q 667.66 361.62 671.21 362.95
  Q 673.63 363.86 676.11 364.31
  Q 682.38 365.46 689.21 368.18
  Q 697.62 371.53 705.02 375.12
  Q 712.07 378.53 719.75 384.03
  Q 733.26 393.72 736.55 396.25
  Q 748.34 405.33 757.72 418.30
  Q 761.19 423.10 764.96 428.63"
/>
<path stroke="#006adf" vector-effect="non-scaling-stroke" d="
  M 789.00 631.71
  Q 791.04 631.72 793.02 631.96
  Q 795.36 632.24 797.00 632.19
  Q 803.72 631.98 814.25 631.97
  Q 924.51 631.88 1010.26 632.02
  Q 1015.30 632.02 1027.90 631.20
  Q 1037.55 630.58 1042.16 628.08
  Q 1049.50 624.12 1053.21 617.49
  Q 1054.87 614.52 1055.51 611.57
  Q 1056.71 606.05 1056.86 605.29
  Q 1058.15 598.50 1055.32 591.36
  Q 1054.20 588.52 1051.35 584.81
  Q 1047.71 580.06 1046.34 578.89
  Q 1042.59 575.69 1038.07 577.26"
/>
<path stroke="#80bdff" vector-effect="non-scaling-stroke" d="
  M 1038.07 577.26
  Q 1036.79 571.90 1033.76 567.07
  Q 1030.75 562.26 1026.55 559.77
  Q 1021.58 556.82 1016.12 554.90
  C 1014.42 554.31 1012.80 554.30 1010.72 554.18
  Q 999.79 553.57 977.25 553.60
  Q 882.97 553.76 788.76 553.62"
/>
<path stroke="#006adf" vector-effect="non-scaling-stroke" d="
  M 788.69 507.00
  Q 792.32 508.25 795.71 508.04
  Q 799.21 507.83 799.30 507.83
  Q 964.26 507.98 1129.21 507.84
  Q 1129.42 507.84 1138.80 507.89
  Q 1150.84 507.95 1155.48 507.18
  Q 1169.72 504.82 1177.97 493.50
  Q 1180.67 489.79 1181.61 485.16
  Q 1183.73 474.75 1179.85 465.53
  Q 1178.46 462.24 1175.35 458.69
  Q 1172.17 455.06 1169.27 452.99
  Q 1166.83 451.24 1162.55 450.50"
/>
<path stroke="#80bdff" vector-effect="non-scaling-stroke" d="
  M 1162.55 450.50
  Q 1161.49 448.43 1160.63 446.18
  Q 1159.52 443.31 1158.71 442.19
  Q 1153.45 434.90 1144.75 431.58
  Q 1142.17 430.60 1139.75 430.44
  Q 1119.77 429.17 1105.48 429.72
  Q 1101.45 429.88 1096.05 429.73
  Q 1091.63 429.61 1086.60 429.71
  C 1077.76 429.89 1068.23 429.30 1058.99 429.69
  Q 1051.89 429.99 1045.52 429.77
  Q 1032.84 429.33 1014.75 429.98
  Q 1011.66 430.09 1001.26 429.77
  Q 994.45 429.57 987.75 429.65
  Q 961.90 429.96 957.50 429.86
  Q 943.18 429.53 938.83 429.68
  C 929.80 429.99 922.29 429.39 913.52 429.36
  Q 872.28 429.24 796.75 429.33
  Q 780.62 429.35 764.96 428.63"
/>
<path stroke="#80addf" vector-effect="non-scaling-stroke" d="
  M 1162.55 450.50
  Q 1167.71 468.97 1154.13 480.88
  Q 1150.29 484.25 1143.28 487.15
  Q 1139.55 488.70 1134.54 488.98
  Q 1129.10 489.29 1125.50 489.29
  Q 1058.16 489.36 1004.25 489.35
  Q 871.85 489.34 795.36 489.51
  Q 794.73 489.51 793.17 489.31
  Q 791.41 489.08 790.94 489.21
  Q 790.37 489.36 790.12 489.71
  Q 789.90 490.01 789.71 490.12
  Q 789.22 490.41 789.10 489.85
  Q 789.00 489.42 788.72 488.97"
/>
<path stroke="#80addf" vector-effect="non-scaling-stroke" d="
  M 1038.07 577.26
  Q 1039.50 582.34 1038.84 584.26
  Q 1037.75 587.43 1037.39 590.73
  Q 1037.02 594.01 1036.65 595.10
  Q 1036.23 596.33 1034.59 599.10
  Q 1029.84 607.16 1021.07 610.74
  Q 1017.57 612.17 1013.64 612.28
  Q 1009.96 612.39 1006.00 612.94
  Q 1002.12 613.49 994.49 613.49
  Q 891.76 613.57 789.02 613.49"
/>
<path stroke="#747575" vector-effect="non-scaling-stroke" d="
  M 664.25 424.72
  Q 662.70 422.82 659.76 422.75
  Q 651.22 422.54 644.66 420.62
  C 642.57 420.01 639.90 419.77 638.00 419.79
  Q 574.06 420.36 506.17 420.10
  C 495.41 420.06 480.53 420.67 469.50 420.19
  Q 459.49 419.76 449.52 419.98
  C 427.14 420.49 395.09 420.20 363.55 420.27
  Q 297.97 420.42 283.55 420.44
  Q 280.11 420.44 261.00 420.36
  Q 169.48 419.94 156.50 420.08
  Q 155.91 420.09 153.97 420.07
  Q 152.75 420.06 151.48 420.35
  Q 141.36 422.67 132.42 423.09
  Q 131.25 423.14 128.70 425.06
  Q 128.30 425.36 127.81 425.42
  Q 124.52 425.83 121.89 427.13
  Q 119.28 428.43 112.62 432.17
  Q 107.05 435.29 103.69 437.75
  Q 90.48 447.42 80.71 460.72
  Q 79.94 461.76 75.11 470.35
  C 73.47 473.26 72.71 476.76 71.21 480.04
  C 70.22 482.19 69.90 484.10 69.39 486.38
  C 68.81 488.92 67.21 491.65 66.90 494.24
  Q 66.69 496.03 66.69 503.00
  Q 66.78 634.64 66.62 872.26
  Q 66.61 879.85 66.83 886.76
  Q 66.91 889.13 67.24 889.76
  Q 68.59 892.33 69.52 895.73
  Q 70.72 900.12 70.74 900.17
  Q 74.76 910.98 79.32 919.01
  Q 83.16 925.80 89.09 931.78
  C 94.94 937.68 100.12 943.14 106.57 946.82
  Q 108.95 948.18 112.12 950.38
  Q 113.33 951.22 120.75 954.72
  Q 124.13 956.32 125.84 956.68
  Q 128.53 957.24 131.00 958.22
  Q 134.06 959.43 138.70 959.73
  Q 154.94 960.77 163.76 960.76
  Q 201.80 960.69 259.77 960.77
  Q 275.13 960.80 286.43 963.51
  C 289.00 964.13 290.41 965.29 292.59 966.17
  Q 294.88 967.08 296.65 968.86
  C 299.77 971.99 301.38 973.07 302.64 976.16
  Q 303.48 978.22 304.40 979.78
  C 305.88 982.27 306.14 985.41 306.16 987.39
  Q 306.40 1010.36 306.28 1051.60
  Q 306.27 1053.66 308.33 1053.60
  Q 309.02 1053.59 310.72 1052.48
  Q 323.02 1044.42 344.41 1030.69
  Q 348.38 1028.14 353.76 1024.43
  Q 357.61 1021.77 363.19 1018.23
  C 366.60 1016.07 369.48 1013.83 372.89 1011.67
  Q 377.28 1008.88 380.17 1006.79
  Q 391.03 998.96 401.43 992.41
  Q 405.34 989.94 411.97 985.42
  Q 414.90 983.43 422.69 978.67
  C 426.48 976.36 430.36 973.22 434.01 970.89
  Q 434.06 970.86 439.55 967.08
  Q 443.25 964.53 447.57 963.06
  Q 453.49 961.05 459.64 960.64
  Q 460.23 960.60 471.86 960.65
  Q 546.98 960.98 633.00 960.85
  Q 638.10 960.84 643.68 960.44
  Q 650.68 959.94 654.37 959.77
  Q 657.98 959.61 660.10 958.74
  Q 662.35 957.81 665.74 957.14
  Q 669.35 956.43 673.97 954.21
  Q 691.25 945.92 704.41 932.42
  Q 709.27 927.43 710.89 924.63
  Q 713.25 920.55 715.64 916.48
  C 716.60 914.84 717.24 912.51 718.31 910.94
  Q 719.90 908.61 720.29 906.92
  Q 720.97 903.96 722.16 901.80
  Q 723.33 899.66 723.49 896.85
  Q 723.69 893.55 725.30 888.61
  C 726.44 885.12 726.68 882.48 726.68 879.01
  Q 726.52 633.06 726.67 500.76
  C 726.67 498.62 726.47 495.07 725.58 492.67
  Q 724.02 488.50 723.36 483.52
  C 723.01 480.94 721.48 479.40 720.85 477.19
  Q 720.11 474.56 718.99 472.35
  Q 716.57 467.59 714.90 464.42
  Q 712.42 459.74 710.10 456.89
  Q 702.36 447.39 692.29 439.35
  Q 682.66 431.67 670.53 426.61
  Q 669.00 425.97 667.79 425.76
  Q 666.09 425.47 665.07 425.23
  A 1.54 1.49 -12.2 0 1 664.25 424.72"
/>
<path stroke="#006adf" vector-effect="non-scaling-stroke" d="
  M 751.43 362.55
  C 754.38 372.76 762.79 378.81 772.85 381.25
  Q 777.06 382.27 788.98 383.04
  Q 794.87 383.42 805.17 383.43
  Q 805.58 383.43 919.50 383.15
  Q 956.69 383.06 973.20 382.95
  Q 987.61 382.84 993.19 382.95
  C 1011.06 383.29 1029.02 382.86 1048.05 382.94
  Q 1089.45 383.12 1102.00 383.17
  Q 1130.46 383.27 1132.26 383.28
  Q 1143.53 383.31 1155.29 382.10
  C 1163.46 381.25 1171.85 378.05 1176.26 371.02
  C 1183.79 359.03 1185.74 342.23 1173.43 332.84
  Q 1172.17 331.87 1170.81 330.40
  Q 1169.24 328.71 1167.86 327.87
  Q 1164.98 326.11 1163.30 327.82"
/>
<path stroke="#80bdff" vector-effect="non-scaling-stroke" d="
  M 1163.30 327.82
  Q 1161.57 320.98 1156.98 315.74
  Q 1152.95 311.14 1149.04 308.77
  Q 1144.58 306.07 1138.77 305.41
  Q 1127.70 304.15 1122.00 304.26
  C 1106.86 304.52 1090.20 304.22 1077.49 304.22
  Q 926.37 304.25 775.25 304.04
  C 766.27 304.02 758.43 303.79 750.01 306.37
  C 744.53 308.05 739.76 312.36 736.33 316.57
  Q 731.08 323.00 730.51 331.08
  Q 729.93 339.36 732.29 344.45
  Q 735.90 352.22 738.46 355.05
  Q 742.92 359.99 751.43 362.55"
/>
<path stroke="#80addf" vector-effect="non-scaling-stroke" d="
  M 1163.30 327.82
  C 1165.29 335.40 1162.09 344.72 1158.28 351.49
  Q 1156.35 354.94 1154.04 356.77
  Q 1149.63 360.28 1144.57 362.07
  Q 1141.08 363.30 1134.01 363.82
  Q 1118.24 364.98 1116.25 364.91
  Q 1096.27 364.26 1075.23 364.51
  Q 1067.19 364.60 1057.33 364.45
  Q 1044.66 364.26 1039.41 364.47
  C 1028.43 364.92 1017.49 364.18 1006.00 364.41
  Q 993.30 364.66 986.00 364.57
  Q 961.42 364.26 957.25 364.33
  Q 943.85 364.56 935.58 364.42
  C 929.47 364.32 923.37 364.67 917.25 364.69
  Q 861.94 364.78 770.75 364.62
  Q 759.67 364.60 756.50 364.07
  Q 755.27 363.87 751.43 362.55"
/>
<path stroke="#cbcccd" vector-effect="non-scaling-stroke" d="
  M 456.71 612.85
  C 458.00 619.31 460.27 625.03 465.87 628.42
  Q 467.76 629.56 475.09 631.71
  Q 483.20 634.09 491.11 637.54"
/>
<path stroke="#747575" vector-effect="non-scaling-stroke" d="
  M 491.11 637.54
  Q 496.05 645.62 499.10 658.23
  Q 501.90 669.80 514.58 671.79"
/>
<path stroke="#cbcccd" vector-effect="non-scaling-stroke" d="
  M 514.58 671.79
  Q 516.71 675.05 518.59 678.61
  Q 521.04 683.27 522.99 685.06
  Q 528.13 689.81 535.66 690.17
  Q 536.68 690.22 541.24 689.90
  Q 541.81 689.86 541.35 690.20
  Q 540.25 690.98 539.49 691.02
  Q 531.74 691.46 524.37 687.86
  Q 524.30 687.83 524.30 687.88
  Q 524.30 687.91 524.27 687.92
  Q 524.14 687.99 524.32 688.09
  Q 530.00 691.21 537.38 691.19
  Q 540.27 691.19 542.77 689.95
  Q 546.31 688.19 547.63 687.10
  Q 552.01 683.48 553.68 677.44
  Q 555.58 670.58 558.20 664.01
  Q 561.10 656.70 567.27 649.46
  C 572.53 643.28 577.30 639.11 584.46 636.25
  Q 593.34 632.70 602.43 630.30
  Q 607.80 628.88 610.05 625.56
  Q 614.01 619.70 614.44 617.97
  Q 615.93 611.94 613.66 606.14
  A 0.03 0.03 0.0 0 1 613.72 606.11
  Q 613.91 606.34 613.94 606.43
  Q 614.11 606.85 614.14 606.42
  Q 614.16 606.22 614.09 606.15
  C 612.73 604.83 611.94 602.56 610.63 601.23
  Q 604.50 595.02 596.51 594.81"
/>
<path stroke="#747575" vector-effect="non-scaling-stroke" d="
  M 596.51 594.81
  Q 596.33 583.17 587.37 577.95
  C 583.73 575.82 578.26 575.28 574.24 574.07
  Q 566.24 571.67 559.13 566.78"
/>
<path stroke="#cbcccd" vector-effect="non-scaling-stroke" d="
  M 559.13 566.78
  Q 556.00 556.93 552.69 547.73
  Q 549.31 538.33 540.05 535.78
  Q 539.37 535.59 539.96 535.98
  Q 540.85 536.57 542.55 537.02
  Q 542.65 537.05 542.72 537.13
  Q 542.73 537.15 542.88 537.33
  Q 542.91 537.36 542.87 537.35
  L 536.79 535.92"
/>
<path stroke="#747575" vector-effect="non-scaling-stroke" d="
  M 536.79 535.92
  C 535.86 531.95 534.94 527.06 532.72 523.92
  Q 525.86 514.24 513.35 516.31
  Q 505.34 517.64 501.32 524.49
  Q 500.00 526.75 498.08 533.87
  Q 490.68 561.36 464.37 572.58
  C 460.06 574.42 455.51 575.24 450.03 576.56
  Q 444.37 577.92 440.38 584.67
  C 435.16 593.48 438.35 605.11 447.22 610.09
  C 449.87 611.57 453.56 612.24 456.71 612.85"
/>
<path stroke="#575758" vector-effect="non-scaling-stroke" d="
  M 536.79 535.92
  Q 542.54 555.29 559.13 566.78"
/>
<path stroke="#575758" vector-effect="non-scaling-stroke" d="
  M 596.51 594.81
  C 595.87 602.71 590.92 609.79 582.97 611.64
  Q 577.62 612.89 575.83 613.35
  C 557.39 618.12 542.70 632.82 537.00 651.25
  Q 536.46 653.01 535.04 659.02
  Q 533.84 664.09 528.87 668.15
  Q 523.12 672.84 514.58 671.79"
/>
<path stroke="#575758" vector-effect="non-scaling-stroke" d="
  M 491.11 637.54
  Q 478.73 618.43 456.71 612.85"
/>
<path stroke="#cbcccd" vector-effect="non-scaling-stroke" d="
  M 294.01 839.17
  Q 296.47 846.94 302.17 851.35
  Q 315.17 861.40 332.75 862.22
  Q 345.15 862.80 358.27 859.52
  A 0.25 0.21 49.6 0 0 358.27 859.09
  Q 358.20 859.06 358.21 858.85
  A 0.26 0.26 0.0 0 1 358.39 858.63
  Q 370.88 854.91 377.16 852.22
  Q 386.10 848.39 396.17 843.98
  Q 401.14 841.81 412.60 834.41
  Q 412.70 834.35 412.81 834.45
  L 412.82 834.46
  Q 412.92 834.55 412.76 834.65
  L 405.34 839.81
  A 0.05 0.05 0.0 0 0 405.34 839.90
  L 405.65 840.06
  Q 405.88 840.17 406.10 840.03
  Q 422.38 829.67 426.38 827.15
  C 431.09 824.18 434.56 825.53 438.96 828.59
  Q 460.22 843.38 484.53 853.36
  Q 487.77 854.69 492.80 856.15
  C 499.79 858.18 507.80 860.65 514.03 861.45
  Q 523.87 862.71 534.46 862.28
  Q 534.79 862.27 534.49 862.12
  L 533.97 861.86
  Q 533.34 861.55 534.03 861.44
  L 537.88 860.84
  Q 538.04 860.81 538.02 860.64
  L 537.98 860.37
  A 0.13 0.12 -9.1 0 0 537.83 860.27
  Q 527.57 861.66 520.17 861.06
  Q 517.09 860.81 509.17 858.81
  Q 509.14 858.80 509.14 858.82
  Q 509.14 858.83 509.13 858.84
  Q 509.13 858.88 509.17 858.88
  Q 509.82 858.88 510.21 858.84
  Q 510.81 858.79 511.22 858.93
  Q 520.22 861.81 530.17 860.48
  Q 540.22 859.14 547.36 857.26
  Q 552.84 855.81 556.77 853.01
  Q 567.80 845.11 572.30 832.05
  Q 576.10 821.02 574.99 808.45
  Q 573.81 794.98 569.76 783.32
  Q 565.41 770.77 562.19 764.11
  Q 556.86 753.07 555.09 749.23
  Q 552.28 743.14 549.54 738.58
  C 544.94 730.96 541.97 725.65 537.15 720.11
  Q 533.56 715.99 528.21 716.31"
/>
<path stroke="#747575" vector-effect="non-scaling-stroke" d="
  M 528.21 716.31
  Q 522.88 707.73 517.34 699.24
  Q 516.24 697.55 514.16 697.42
  Q 498.27 696.40 486.11 685.48
  Q 485.75 685.16 485.37 685.46
  Q 482.76 687.55 481.91 688.68
  Q 469.27 705.59 454.71 721.03"
/>
<path stroke="#cbcccd" vector-effect="non-scaling-stroke" d="
  M 454.71 721.03
  Q 454.30 714.27 452.81 710.43
  Q 449.04 700.69 439.31 696.79
  Q 438.49 696.46 438.94 697.21
  Q 439.00 697.31 439.48 697.47
  Q 439.49 697.48 439.49 697.49
  Q 439.50 697.50 439.48 697.49
  L 435.64 696.32"
/>
<path stroke="#747575" vector-effect="non-scaling-stroke" d="
  M 435.64 696.32
  Q 431.59 677.34 411.54 676.16"
/>
<path stroke="#cbcccd" vector-effect="non-scaling-stroke" d="
  M 411.54 676.16
  Q 421.57 666.82 431.61 658.17
  A 0.04 0.04 0.0 0 0 431.58 658.10
  Q 431.53 658.13 431.49 658.12
  Q 431.43 658.12 431.32 658.21
  Q 427.35 661.47 420.36 667.08
  Q 420.18 667.22 420.05 667.04
  L 419.89 666.82
  Q 419.85 666.77 419.90 666.73
  Q 431.24 656.64 439.23 650.72
  Q 443.31 647.69 443.00 642.90
  A 2.67 2.63 -68.1 0 0 442.33 641.30
  C 436.55 634.87 434.26 628.28 432.45 619.97
  Q 431.36 614.98 430.00 612.93
  Q 427.81 609.63 424.09 607.71
  Q 418.33 604.73 412.84 601.32"
/>
<path stroke="#747575" vector-effect="non-scaling-stroke" d="
  M 412.84 601.32
  L 411.63 594.80
  Q 411.53 594.29 411.10 593.98
  Q 397.97 584.69 381.24 575.52
  Q 364.41 566.30 345.74 560.47
  C 320.77 552.69 290.38 552.27 274.99 577.70
  C 269.58 586.64 267.81 598.80 268.58 609.23
  Q 269.54 622.43 273.92 635.59
  C 281.43 658.18 293.51 679.82 307.38 699.47
  A 0.48 0.47 44.5 0 1 307.39 700.01
  C 295.71 716.87 285.61 734.23 277.76 753.25
  C 270.87 769.97 265.98 790.23 269.70 807.99
  Q 274.18 829.31 294.01 839.17"
/>
<path stroke="#575758" vector-effect="non-scaling-stroke" d="
  M 412.84 601.32
  Q 415.45 615.97 426.15 626.31
  Q 426.52 626.67 426.31 627.15
  Q 425.63 628.71 423.96 629.98
  Q 383.94 660.20 352.12 699.20
  A 0.86 0.85 -45.3 0 0 352.12 700.27
  Q 363.46 714.42 376.38 727.32"
/>
<path stroke="#747575" vector-effect="non-scaling-stroke" d="
  M 376.38 727.32
  Q 393.24 744.76 412.14 760.23
  A 0.53 0.53 0.0 0 0 412.81 760.22
  L 434.60 741.26"
/>
<path stroke="#575758" vector-effect="non-scaling-stroke" d="
  M 434.60 741.26
  L 454.71 721.03"
/>
<path stroke="#575758" vector-effect="non-scaling-stroke" d="
  M 528.21 716.31
  Q 537.84 731.58 546.76 752.70
  Q 555.99 774.56 556.43 793.22
  Q 556.74 806.47 552.71 816.24
  C 545.47 833.78 529.43 842.95 510.75 843.56
  Q 500.51 843.89 492.67 842.34
  C 464.05 836.68 437.10 821.88 412.92 804.88
  A 0.72 0.71 -44.2 0 0 412.09 804.87
  C 389.74 820.38 365.97 833.75 340.36 840.56
  Q 324.52 844.76 308.52 843.19
  Q 302.09 842.57 294.01 839.17"
/>
<path stroke="#cbcccd" vector-effect="non-scaling-stroke" d="
  M 434.60 741.26
  Q 420.05 742.35 411.80 731.24
  Q 410.11 728.95 407.49 722.73"
/>
<path stroke="#575758" vector-effect="non-scaling-stroke" d="
  M 411.54 676.16
  Q 403.87 676.86 398.17 681.18
  Q 389.33 687.89 388.94 700.01"
/>
<path stroke="#cbcccd" vector-effect="non-scaling-stroke" d="
  M 388.94 700.01
  Q 386.58 701.17 384.75 703.11
  Q 379.66 708.51 375.67 713.90
  Q 374.24 715.83 374.15 718.28
  Q 374.10 719.63 375.12 722.57
  Q 375.93 724.89 376.38 727.32"
/>
<path stroke="#575758" vector-effect="non-scaling-stroke" d="
  M 435.64 696.32
  C 437.72 713.05 423.94 725.61 407.49 722.73"
/>
<path stroke="#747575" vector-effect="non-scaling-stroke" d="
  M 407.49 722.73
  Q 390.25 717.79 388.94 700.01"
/>
<path stroke="#747575" vector-effect="non-scaling-stroke" d="
  M 333.78 666.21
  Q 354.68 642.45 378.59 621.55"
/>
<path stroke="#575758" vector-effect="non-scaling-stroke" d="
  M 378.59 621.55
  L 382.51 618.04
  A 0.58 0.58 0.0 0 0 382.44 617.13
  Q 365.48 605.86 346.54 597.98
  Q 338.99 594.83 328.94 592.37
  Q 319.24 589.99 310.80 591.74
  C 304.00 593.14 303.22 600.71 303.63 606.37
  C 304.48 618.03 308.45 629.44 313.30 639.96
  Q 320.52 655.61 329.91 669.98
  A 0.46 0.46 0.0 0 0 330.65 670.02
  L 333.78 666.21"
/>
<path stroke="#cbcccd" vector-effect="non-scaling-stroke" d="
  M 378.59 621.55
  Q 376.27 620.27 373.86 619.43
  A 0.09 0.08 66.6 0 0 373.80 619.59
  Q 373.94 619.66 374.07 619.81
  A 0.13 0.13 0.0 0 1 373.93 620.02
  Q 368.24 618.01 351.24 612.64
  Q 341.27 609.48 333.41 610.42
  Q 323.71 611.58 323.13 622.03
  C 322.64 630.87 324.92 639.00 327.73 647.11
  Q 330.43 654.88 334.24 662.49
  Q 334.33 662.67 334.15 662.76
  L 333.91 662.89
  Q 333.81 662.94 333.76 662.84
  Q 329.04 654.54 324.74 641.25
  Q 321.27 630.55 322.14 620.71
  Q 322.59 615.68 326.34 611.17
  Q 326.53 610.94 326.23 610.89
  L 325.94 610.85
  Q 325.91 610.84 325.89 610.87
  Q 321.08 616.62 321.33 623.97
  Q 321.79 637.60 327.29 650.55
  Q 330.60 658.34 333.78 666.21"
/>
<path stroke="#747575" vector-effect="non-scaling-stroke" d="
  M 323.04 808.20
  Q 328.65 807.45 334.11 805.82
  Q 347.39 801.86 359.68 795.57
  C 367.16 791.75 375.23 787.30 382.52 782.38
  A 0.48 0.48 0.0 0 0 382.56 781.63
  Q 365.50 766.76 349.50 750.44"
/>
<path stroke="#575758" vector-effect="non-scaling-stroke" d="
  M 349.50 750.44
  L 330.49 729.35
  Q 330.25 729.08 330.06 729.38
  Q 316.87 749.23 308.82 770.56
  Q 304.70 781.51 303.69 792.38
  C 303.36 795.95 303.78 800.80 305.15 803.69
  C 307.80 809.33 317.79 808.89 323.04 808.20"
/>
<path stroke="#cbcccd" vector-effect="non-scaling-stroke" d="
  M 349.50 750.44
  C 345.00 755.85 341.73 762.19 338.18 768.25
  Q 338.10 768.39 338.01 768.30
  L 338.00 768.29
  Q 337.94 768.23 338.06 768.02
  L 341.68 761.42
  Q 341.80 761.21 341.58 761.09
  L 341.33 760.95
  Q 341.28 760.93 341.26 760.97
  Q 336.55 767.29 334.06 773.17
  Q 330.04 782.69 325.90 794.36
  Q 323.98 799.75 323.04 808.20"
/>
<path stroke="#747575" vector-effect="non-scaling-stroke" d="
  M 467.39 796.50
  Q 478.15 802.14 492.26 806.19
  Q 502.51 809.13 510.75 808.40
  C 515.43 807.98 519.00 806.63 520.42 801.93
  Q 521.38 798.72 521.28 795.00
  Q 520.97 783.85 517.02 773.45
  Q 511.78 759.63 508.52 753.16"
/>
<path stroke="#575758" vector-effect="non-scaling-stroke" d="
  M 508.52 753.16
  Q 502.55 740.76 494.80 729.33
  A 0.21 0.21 0.0 0 0 494.47 729.31
  Q 470.79 757.16 442.42 781.34
  A 0.68 0.68 0.0 0 0 442.48 782.42
  Q 454.37 790.31 467.39 796.50"
/>
<path stroke="#cbcccd" vector-effect="non-scaling-stroke" d="
  M 508.52 753.16
  Q 501.37 762.47 496.19 767.69
  C 488.67 775.28 481.37 783.14 473.52 790.38
  Q 470.35 793.30 467.39 796.50"
/>
</g>
<path fill="#000000" d="
  M 790.63 774.25
  Q 788.89 774.30 788.90 776.05
  Q 789.44 830.64 788.98 883.00
  Q 788.95 886.00 788.59 892.51
  Q 788.42 895.60 786.40 901.08
  C 785.81 902.67 785.68 903.80 785.56 905.27
  Q 785.11 910.59 784.70 911.18
  Q 782.85 913.85 782.02 916.98
  Q 780.56 922.49 780.42 922.86
  Q 770.52 949.54 750.34 973.10
  Q 744.94 979.41 740.99 982.74
  Q 729.99 992.04 720.88 998.36
  Q 713.99 1003.14 707.97 1006.16
  Q 694.57 1012.86 679.31 1017.54
  Q 677.51 1018.09 674.64 1018.58
  Q 672.85 1018.88 670.06 1019.87
  C 664.97 1021.68 659.84 1021.19 653.02 1021.56
  Q 651.10 1021.66 646.54 1022.75
  Q 642.95 1023.61 639.98 1023.65
  Q 629.55 1023.80 622.49 1024.04
  Q 614.61 1024.31 605.00 1024.31
  Q 502.10 1024.34 471.00 1024.11
  Q 466.78 1024.07 463.76 1025.79
  Q 460.86 1027.44 455.39 1030.93
  Q 435.41 1043.68 352.54 1099.28
  Q 335.49 1110.73 319.21 1120.20
  Q 314.96 1122.67 310.48 1127.91
  Q 308.77 1129.91 306.59 1131.00
  Q 304.42 1132.09 296.14 1136.90
  Q 292.43 1139.05 288.05 1139.50
  Q 282.12 1140.11 276.67 1142.36
  Q 276.18 1142.56 275.67 1142.49
  Q 271.69 1141.93 266.76 1141.55
  Q 265.44 1141.45 263.63 1140.97
  Q 262.46 1140.66 260.88 1139.46
  Q 259.58 1138.49 257.92 1137.63
  Q 256.20 1136.74 255.29 1135.55
  Q 252.33 1131.63 251.67 1130.21
  Q 248.07 1122.52 245.71 1114.31
  Q 244.28 1109.35 244.18 1102.02
  Q 243.81 1075.74 244.57 1027.07
  C 244.64 1022.61 241.44 1022.53 237.93 1022.97
  Q 229.20 1024.07 227.50 1024.08
  Q 209.02 1024.16 174.50 1024.28
  Q 158.72 1024.33 154.44 1023.40
  C 150.36 1022.52 146.18 1021.45 142.12 1021.35
  Q 134.40 1021.16 129.00 1020.98
  C 127.32 1020.92 125.47 1020.39 123.52 1019.63
  Q 119.35 1018.00 114.93 1017.61
  C 112.35 1017.39 109.60 1015.16 107.17 1014.76
  C 105.49 1014.48 103.75 1014.12 101.72 1013.12
  Q 100.40 1012.46 94.48 1010.01
  Q 91.86 1008.93 81.86 1003.57
  Q 78.21 1001.61 75.81 999.91
  Q 74.21 998.79 69.78 995.93
  Q 65.26 993.00 58.45 987.57
  Q 52.27 982.63 48.19 978.28
  Q 40.38 969.95 32.85 959.81
  Q 20.23 942.80 13.10 923.18
  C 12.20 920.70 11.92 917.66 10.86 915.36
  C 8.82 910.91 8.63 905.71 6.98 900.96
  Q 5.34 896.21 5.24 894.75
  Q 3.12 863.00 3.11 854.25
  Q 2.98 688.98 3.04 567.50
  Q 3.04 563.50 2.85 547.50
  Q 2.63 530.05 3.46 509.85
  Q 3.58 506.84 4.29 499.69
  Q 4.79 494.55 5.06 489.53
  Q 5.35 484.24 6.91 480.13
  C 8.45 476.07 8.24 471.44 10.08 467.43
  Q 11.13 465.16 11.57 463.40
  Q 11.76 462.65 12.91 459.30
  Q 15.38 452.09 19.92 442.66
  Q 23.21 435.84 28.76 428.16
  Q 39.43 413.41 41.18 411.44
  Q 50.45 400.98 56.28 396.28
  Q 60.97 392.52 66.30 388.51
  Q 70.31 385.50 73.65 383.51
  C 77.35 381.31 80.02 378.99 83.63 377.10
  Q 91.01 373.23 91.86 372.80
  Q 94.23 371.57 96.19 370.93
  C 98.23 370.27 100.04 369.06 101.99 368.44
  Q 105.30 367.40 108.53 366.14
  Q 110.22 365.49 115.91 364.14
  Q 118.69 363.49 120.81 362.60
  C 124.64 361.01 128.63 360.89 132.24 360.77
  C 137.78 360.59 142.52 358.94 148.29 358.52
  Q 156.76 357.90 168.00 357.88
  Q 196.51 357.83 235.51 358.04
  Q 248.98 358.12 255.50 358.08
  Q 298.04 357.85 333.76 358.09
  C 353.78 358.23 374.04 357.88 393.76 358.25
  Q 399.76 358.36 413.74 358.22
  Q 472.16 357.62 544.76 358.19
  Q 547.04 358.21 546.86 355.94
  C 546.47 350.97 546.87 346.60 546.42 341.04
  Q 544.66 319.29 545.23 292.25
  Q 545.30 288.86 545.57 285.75
  Q 545.97 281.13 545.95 279.24
  Q 545.77 255.64 546.82 240.80
  Q 546.98 238.42 548.35 234.30
  C 549.51 230.81 549.77 228.81 550.22 225.41
  Q 550.38 224.19 551.42 222.02
  Q 552.69 219.38 553.40 216.55
  Q 554.32 212.95 555.09 211.65
  Q 556.44 209.37 557.10 206.81
  Q 557.28 206.12 559.23 202.39
  C 560.20 200.53 560.75 198.24 561.88 196.38
  Q 567.34 187.38 574.15 176.80
  Q 579.40 168.65 584.34 163.51
  Q 590.31 157.33 596.23 151.62
  Q 600.37 147.64 607.41 142.62
  Q 617.86 135.19 619.25 134.47
  Q 632.94 127.40 633.42 127.15
  Q 639.67 123.90 646.55 121.77
  C 648.93 121.04 651.47 119.83 654.00 119.15
  Q 658.57 117.94 659.41 117.60
  C 661.75 116.67 664.09 115.68 666.62 115.45
  Q 671.06 115.03 672.11 114.97
  Q 673.66 114.87 677.49 113.84
  Q 684.67 111.90 695.00 111.90
  Q 1001.99 111.91 1122.75 111.93
  Q 1126.77 111.93 1180.25 112.30
  Q 1191.63 112.38 1200.68 114.58
  Q 1202.74 115.08 1210.51 115.41
  C 1213.20 115.52 1217.54 117.93 1220.99 118.76
  C 1222.63 119.16 1224.69 119.35 1226.15 120.05
  Q 1228.37 121.11 1232.11 122.18
  Q 1234.48 122.86 1238.00 124.41
  Q 1247.77 128.70 1257.16 134.05
  Q 1263.85 137.86 1268.20 141.46
  Q 1270.81 143.62 1275.31 146.65
  Q 1277.98 148.46 1281.95 152.27
  Q 1285.84 156.00 1293.43 163.81
  Q 1296.36 166.83 1298.73 170.26
  Q 1301.81 174.70 1303.59 176.99
  Q 1309.11 184.06 1313.30 192.15
  C 1315.08 195.57 1316.89 198.45 1318.80 202.14
  Q 1319.97 204.39 1321.09 207.85
  C 1322.08 210.87 1323.22 212.94 1323.70 215.64
  Q 1324.17 218.24 1325.50 221.48
  Q 1326.64 224.26 1326.97 226.70
  C 1327.41 229.92 1327.48 231.59 1328.51 233.86
  Q 1330.54 238.35 1330.71 242.75
  Q 1331.07 252.07 1331.03 264.00
  Q 1330.95 289.38 1331.03 345.75
  Q 1331.34 556.42 1330.79 641.11
  Q 1330.78 643.10 1330.45 647.73
  Q 1330.23 650.92 1328.49 654.53
  C 1327.81 655.95 1327.17 657.87 1327.17 659.49
  Q 1327.16 664.03 1326.38 665.35
  Q 1324.84 667.96 1324.08 670.84
  Q 1322.71 676.03 1322.52 676.54
  Q 1315.36 696.07 1303.30 713.04
  Q 1302.50 714.17 1293.03 725.94
  Q 1286.98 733.46 1281.79 737.95
  Q 1273.45 745.17 1260.60 753.33
  Q 1237.96 767.71 1214.14 772.74
  Q 1211.33 773.34 1209.50 774.12
  Q 1206.68 775.32 1204.77 775.30
  Q 1195.41 775.18 1186.18 776.02
  Q 1176.20 776.94 1168.84 776.98
  Q 1131.69 777.19 1119.52 776.37
  Q 1102.85 775.24 1096.15 775.37
  Q 1090.95 775.47 1090.95 781.04
  Q 1091.00 833.74 1091.04 861.54
  C 1091.05 866.91 1090.96 870.23 1089.32 874.85
  Q 1087.36 880.38 1084.03 885.54
  C 1081.57 889.35 1077.20 891.20 1074.38 893.22
  Q 1072.40 894.64 1070.23 894.96
  C 1068.45 895.22 1066.21 895.10 1064.15 895.76
  C 1060.88 896.81 1058.73 897.13 1055.43 896.19
  Q 1051.71 895.12 1048.77 894.82
  A 5.52 5.45 -25.9 0 1 1046.49 894.05
  Q 1036.67 888.08 1032.97 885.61
  Q 1014.18 873.11 996.38 861.31
  Q 978.51 849.45 968.84 843.24
  Q 960.51 837.89 952.53 832.46
  Q 946.68 828.49 904.61 800.43
  Q 892.56 792.39 889.84 790.62
  Q 886.27 788.29 878.86 782.96
  Q 872.18 778.16 868.16 775.89
  Q 865.84 774.58 861.50 774.51
  Q 848.30 774.30 808.81 774.47
  C 801.87 774.50 796.56 774.04 790.63 774.25
  Z
  M 764.96 428.63
  Q 772.19 440.09 773.96 444.34
  Q 776.67 450.85 776.95 451.24
  C 778.50 453.47 778.62 456.00 779.72 458.25
  Q 781.25 461.39 781.53 463.53
  Q 781.86 466.01 783.64 469.89
  Q 784.54 471.85 785.21 475.94
  Q 786.32 482.66 788.72 488.97
  L 788.69 507.00
  L 788.76 553.62
  L 789.02 613.49
  L 789.00 631.71
  L 788.43 713.43
  A 0.99 0.98 4.3 0 0 789.28 714.41
  Q 790.91 714.62 793.75 714.63
  Q 849.59 714.78 875.58 714.67
  Q 880.76 714.64 884.79 715.86
  Q 890.98 717.73 896.43 720.73
  Q 899.08 722.19 910.67 730.22
  Q 916.19 734.04 922.73 738.79
  Q 927.95 742.58 933.42 746.00
  Q 941.43 750.99 944.16 753.16
  Q 944.20 753.20 956.46 761.18
  Q 962.63 765.19 968.70 769.28
  Q 978.67 775.99 981.03 777.50
  Q 988.60 782.35 995.23 787.07
  Q 1003.34 792.85 1010.45 797.20
  C 1015.08 800.02 1019.11 803.38 1023.51 806.04
  Q 1025.47 807.23 1028.03 806.86
  A 1.40 1.40 0.0 0 0 1029.23 805.49
  Q 1029.31 799.56 1029.15 789.83
  Q 1029.13 789.02 1028.53 774.15
  Q 1027.86 757.83 1029.37 740.55
  Q 1029.80 735.59 1031.37 732.55
  Q 1035.77 724.04 1044.50 719.07
  C 1046.99 717.65 1050.00 716.74 1053.07 715.57
  Q 1056.55 714.25 1061.76 714.23
  Q 1115.23 713.98 1174.22 714.45
  Q 1179.70 714.49 1185.20 714.22
  C 1192.40 713.85 1196.21 714.12 1199.10 713.01
  Q 1203.45 711.34 1204.75 711.07
  Q 1207.95 710.40 1210.52 709.39
  Q 1222.16 704.84 1232.00 698.24
  Q 1245.46 689.23 1254.72 674.69
  Q 1260.73 665.24 1263.67 657.40
  Q 1265.02 653.77 1265.95 648.72
  Q 1267.09 642.46 1267.77 639.84
  C 1268.67 636.40 1268.75 632.44 1268.75 629.50
  Q 1268.77 606.62 1268.90 256.50
  Q 1268.90 249.98 1268.11 247.39
  C 1266.58 242.40 1265.56 236.48 1263.92 232.07
  Q 1260.80 223.71 1256.62 217.04
  C 1252.69 210.75 1246.80 204.57 1241.31 198.93
  Q 1227.07 184.33 1207.06 177.93
  Q 1204.34 177.06 1199.63 176.23
  C 1193.80 175.21 1188.57 173.67 1183.67 173.31
  Q 1179.68 173.02 1175.02 173.05
  Q 1155.70 173.14 1114.25 173.47
  Q 1103.87 173.55 1094.24 173.54
  Q 1087.87 173.54 832.50 173.65
  Q 822.84 173.66 812.50 173.60
  Q 761.00 173.31 709.50 173.24
  Q 696.25 173.22 691.87 173.40
  Q 688.75 173.54 685.43 174.81
  Q 682.44 175.96 678.07 176.38
  Q 673.99 176.77 670.00 178.11
  C 648.49 185.37 630.18 201.77 619.15 221.38
  Q 616.68 225.77 615.43 229.59
  Q 615.03 230.82 613.62 233.69
  Q 612.57 235.82 612.18 237.96
  Q 611.35 242.59 611.33 242.67
  C 610.64 245.32 609.48 248.67 609.34 251.86
  Q 609.29 252.95 609.31 256.75
  Q 609.40 284.83 609.38 310.75
  C 609.36 325.77 608.92 340.34 608.76 357.34
  Q 608.75 358.03 609.40 358.26
  Q 609.76 358.38 610.59 358.37
  Q 628.51 358.22 641.50 358.61
  C 646.10 358.75 653.24 360.48 658.85 360.98
  Q 661.78 361.24 666.23 361.53
  Q 667.66 361.62 671.21 362.95
  Q 673.63 363.86 676.11 364.31
  Q 682.38 365.46 689.21 368.18
  Q 697.62 371.53 705.02 375.12
  Q 712.07 378.53 719.75 384.03
  Q 733.26 393.72 736.55 396.25
  Q 748.34 405.33 757.72 418.30
  Q 761.19 423.10 764.96 428.63
  Z
  M 664.25 424.72
  Q 662.70 422.82 659.76 422.75
  Q 651.22 422.54 644.66 420.62
  C 642.57 420.01 639.90 419.77 638.00 419.79
  Q 574.06 420.36 506.17 420.10
  C 495.41 420.06 480.53 420.67 469.50 420.19
  Q 459.49 419.76 449.52 419.98
  C 427.14 420.49 395.09 420.20 363.55 420.27
  Q 297.97 420.42 283.55 420.44
  Q 280.11 420.44 261.00 420.36
  Q 169.48 419.94 156.50 420.08
  Q 155.91 420.09 153.97 420.07
  Q 152.75 420.06 151.48 420.35
  Q 141.36 422.67 132.42 423.09
  Q 131.25 423.14 128.70 425.06
  Q 128.30 425.36 127.81 425.42
  Q 124.52 425.83 121.89 427.13
  Q 119.28 428.43 112.62 432.17
  Q 107.05 435.29 103.69 437.75
  Q 90.48 447.42 80.71 460.72
  Q 79.94 461.76 75.11 470.35
  C 73.47 473.26 72.71 476.76 71.21 480.04
  C 70.22 482.19 69.90 484.10 69.39 486.38
  C 68.81 488.92 67.21 491.65 66.90 494.24
  Q 66.69 496.03 66.69 503.00
  Q 66.78 634.64 66.62 872.26
  Q 66.61 879.85 66.83 886.76
  Q 66.91 889.13 67.24 889.76
  Q 68.59 892.33 69.52 895.73
  Q 70.72 900.12 70.74 900.17
  Q 74.76 910.98 79.32 919.01
  Q 83.16 925.80 89.09 931.78
  C 94.94 937.68 100.12 943.14 106.57 946.82
  Q 108.95 948.18 112.12 950.38
  Q 113.33 951.22 120.75 954.72
  Q 124.13 956.32 125.84 956.68
  Q 128.53 957.24 131.00 958.22
  Q 134.06 959.43 138.70 959.73
  Q 154.94 960.77 163.76 960.76
  Q 201.80 960.69 259.77 960.77
  Q 275.13 960.80 286.43 963.51
  C 289.00 964.13 290.41 965.29 292.59 966.17
  Q 294.88 967.08 296.65 968.86
  C 299.77 971.99 301.38 973.07 302.64 976.16
  Q 303.48 978.22 304.40 979.78
  C 305.88 982.27 306.14 985.41 306.16 987.39
  Q 306.40 1010.36 306.28 1051.60
  Q 306.27 1053.66 308.33 1053.60
  Q 309.02 1053.59 310.72 1052.48
  Q 323.02 1044.42 344.41 1030.69
  Q 348.38 1028.14 353.76 1024.43
  Q 357.61 1021.77 363.19 1018.23
  C 366.60 1016.07 369.48 1013.83 372.89 1011.67
  Q 377.28 1008.88 380.17 1006.79
  Q 391.03 998.96 401.43 992.41
  Q 405.34 989.94 411.97 985.42
  Q 414.90 983.43 422.69 978.67
  C 426.48 976.36 430.36 973.22 434.01 970.89
  Q 434.06 970.86 439.55 967.08
  Q 443.25 964.53 447.57 963.06
  Q 453.49 961.05 459.64 960.64
  Q 460.23 960.60 471.86 960.65
  Q 546.98 960.98 633.00 960.85
  Q 638.10 960.84 643.68 960.44
  Q 650.68 959.94 654.37 959.77
  Q 657.98 959.61 660.10 958.74
  Q 662.35 957.81 665.74 957.14
  Q 669.35 956.43 673.97 954.21
  Q 691.25 945.92 704.41 932.42
  Q 709.27 927.43 710.89 924.63
  Q 713.25 920.55 715.64 916.48
  C 716.60 914.84 717.24 912.51 718.31 910.94
  Q 719.90 908.61 720.29 906.92
  Q 720.97 903.96 722.16 901.80
  Q 723.33 899.66 723.49 896.85
  Q 723.69 893.55 725.30 888.61
  C 726.44 885.12 726.68 882.48 726.68 879.01
  Q 726.52 633.06 726.67 500.76
  C 726.67 498.62 726.47 495.07 725.58 492.67
  Q 724.02 488.50 723.36 483.52
  C 723.01 480.94 721.48 479.40 720.85 477.19
  Q 720.11 474.56 718.99 472.35
  Q 716.57 467.59 714.90 464.42
  Q 712.42 459.74 710.10 456.89
  Q 702.36 447.39 692.29 439.35
  Q 682.66 431.67 670.53 426.61
  Q 669.00 425.97 667.79 425.76
  Q 666.09 425.47 665.07 425.23
  A 1.54 1.49 -12.2 0 1 664.25 424.72
  Z"
/>
<path fill="#007aff" d="
  M 789.00 631.71
  Q 791.04 631.72 793.02 631.96
  Q 795.36 632.24 797.00 632.19
  Q 803.72 631.98 814.25 631.97
  Q 924.51 631.88 1010.26 632.02
  Q 1015.30 632.02 1027.90 631.20
  Q 1037.55 630.58 1042.16 628.08
  Q 1049.50 624.12 1053.21 617.49
  Q 1054.87 614.52 1055.51 611.57
  Q 1056.71 606.05 1056.86 605.29
  Q 1058.15 598.50 1055.32 591.36
  Q 1054.20 588.52 1051.35 584.81
  Q 1047.71 580.06 1046.34 578.89
  Q 1042.59 575.69 1038.07 577.26
  Q 1036.79 571.90 1033.76 567.07
  Q 1030.75 562.26 1026.55 559.77
  Q 1021.58 556.82 1016.12 554.90
  C 1014.42 554.31 1012.80 554.30 1010.72 554.18
  Q 999.79 553.57 977.25 553.60
  Q 882.97 553.76 788.76 553.62
  L 788.69 507.00
  Q 792.32 508.25 795.71 508.04
  Q 799.21 507.83 799.30 507.83
  Q 964.26 507.98 1129.21 507.84
  Q 1129.42 507.84 1138.80 507.89
  Q 1150.84 507.95 1155.48 507.18
  Q 1169.72 504.82 1177.97 493.50
  Q 1180.67 489.79 1181.61 485.16
  Q 1183.73 474.75 1179.85 465.53
  Q 1178.46 462.24 1175.35 458.69
  Q 1172.17 455.06 1169.27 452.99
  Q 1166.83 451.24 1162.55 450.50
  Q 1161.49 448.43 1160.63 446.18
  Q 1159.52 443.31 1158.71 442.19
  Q 1153.45 434.90 1144.75 431.58
  Q 1142.17 430.60 1139.75 430.44
  Q 1119.77 429.17 1105.48 429.72
  Q 1101.45 429.88 1096.05 429.73
  Q 1091.63 429.61 1086.60 429.71
  C 1077.76 429.89 1068.23 429.30 1058.99 429.69
  Q 1051.89 429.99 1045.52 429.77
  Q 1032.84 429.33 1014.75 429.98
  Q 1011.66 430.09 1001.26 429.77
  Q 994.45 429.57 987.75 429.65
  Q 961.90 429.96 957.50 429.86
  Q 943.18 429.53 938.83 429.68
  C 929.80 429.99 922.29 429.39 913.52 429.36
  Q 872.28 429.24 796.75 429.33
  Q 780.62 429.35 764.96 428.63
  Q 761.19 423.10 757.72 418.30
  Q 748.34 405.33 736.55 396.25
  Q 733.26 393.72 719.75 384.03
  Q 712.07 378.53 705.02 375.12
  Q 697.62 371.53 689.21 368.18
  Q 682.38 365.46 676.11 364.31
  Q 673.63 363.86 671.21 362.95
  Q 667.66 361.62 666.23 361.53
  Q 661.78 361.24 658.85 360.98
  C 653.24 360.48 646.10 358.75 641.50 358.61
  Q 628.51 358.22 610.59 358.37
  Q 609.76 358.38 609.40 358.26
  Q 608.75 358.03 608.76 357.34
  C 608.92 340.34 609.36 325.77 609.38 310.75
  Q 609.40 284.83 609.31 256.75
  Q 609.29 252.95 609.34 251.86
  C 609.48 248.67 610.64 245.32 611.33 242.67
  Q 611.35 242.59 612.18 237.96
  Q 612.57 235.82 613.62 233.69
  Q 615.03 230.82 615.43 229.59
  Q 616.68 225.77 619.15 221.38
  C 630.18 201.77 648.49 185.37 670.00 178.11
  Q 673.99 176.77 678.07 176.38
  Q 682.44 175.96 685.43 174.81
  Q 688.75 173.54 691.87 173.40
  Q 696.25 173.22 709.50 173.24
  Q 761.00 173.31 812.50 173.60
  Q 822.84 173.66 832.50 173.65
  Q 1087.87 173.54 1094.24 173.54
  Q 1103.87 173.55 1114.25 173.47
  Q 1155.70 173.14 1175.02 173.05
  Q 1179.68 173.02 1183.67 173.31
  C 1188.57 173.67 1193.80 175.21 1199.63 176.23
  Q 1204.34 177.06 1207.06 177.93
  Q 1227.07 184.33 1241.31 198.93
  C 1246.80 204.57 1252.69 210.75 1256.62 217.04
  Q 1260.80 223.71 1263.92 232.07
  C 1265.56 236.48 1266.58 242.40 1268.11 247.39
  Q 1268.90 249.98 1268.90 256.50
  Q 1268.77 606.62 1268.75 629.50
  C 1268.75 632.44 1268.67 636.40 1267.77 639.84
  Q 1267.09 642.46 1265.95 648.72
  Q 1265.02 653.77 1263.67 657.40
  Q 1260.73 665.24 1254.72 674.69
  Q 1245.46 689.23 1232.00 698.24
  Q 1222.16 704.84 1210.52 709.39
  Q 1207.95 710.40 1204.75 711.07
  Q 1203.45 711.34 1199.10 713.01
  C 1196.21 714.12 1192.40 713.85 1185.20 714.22
  Q 1179.70 714.49 1174.22 714.45
  Q 1115.23 713.98 1061.76 714.23
  Q 1056.55 714.25 1053.07 715.57
  C 1050.00 716.74 1046.99 717.65 1044.50 719.07
  Q 1035.77 724.04 1031.37 732.55
  Q 1029.80 735.59 1029.37 740.55
  Q 1027.86 757.83 1028.53 774.15
  Q 1029.13 789.02 1029.15 789.83
  Q 1029.31 799.56 1029.23 805.49
  A 1.40 1.40 0.0 0 1 1028.03 806.86
  Q 1025.47 807.23 1023.51 806.04
  C 1019.11 803.38 1015.08 800.02 1010.45 797.20
  Q 1003.34 792.85 995.23 787.07
  Q 988.60 782.35 981.03 777.50
  Q 978.67 775.99 968.70 769.28
  Q 962.63 765.19 956.46 761.18
  Q 944.20 753.20 944.16 753.16
  Q 941.43 750.99 933.42 746.00
  Q 927.95 742.58 922.73 738.79
  Q 916.19 734.04 910.67 730.22
  Q 899.08 722.19 896.43 720.73
  Q 890.98 717.73 884.79 715.86
  Q 880.76 714.64 875.58 714.67
  Q 849.59 714.78 793.75 714.63
  Q 790.91 714.62 789.28 714.41
  A 0.99 0.98 4.3 0 1 788.43 713.43
  L 789.00 631.71
  Z
  M 751.43 362.55
  C 754.38 372.76 762.79 378.81 772.85 381.25
  Q 777.06 382.27 788.98 383.04
  Q 794.87 383.42 805.17 383.43
  Q 805.58 383.43 919.50 383.15
  Q 956.69 383.06 973.20 382.95
  Q 987.61 382.84 993.19 382.95
  C 1011.06 383.29 1029.02 382.86 1048.05 382.94
  Q 1089.45 383.12 1102.00 383.17
  Q 1130.46 383.27 1132.26 383.28
  Q 1143.53 383.31 1155.29 382.10
  C 1163.46 381.25 1171.85 378.05 1176.26 371.02
  C 1183.79 359.03 1185.74 342.23 1173.43 332.84
  Q 1172.17 331.87 1170.81 330.40
  Q 1169.24 328.71 1167.86 327.87
  Q 1164.98 326.11 1163.30 327.82
  Q 1161.57 320.98 1156.98 315.74
  Q 1152.95 311.14 1149.04 308.77
  Q 1144.58 306.07 1138.77 305.41
  Q 1127.70 304.15 1122.00 304.26
  C 1106.86 304.52 1090.20 304.22 1077.49 304.22
  Q 926.37 304.25 775.25 304.04
  C 766.27 304.02 758.43 303.79 750.01 306.37
  C 744.53 308.05 739.76 312.36 736.33 316.57
  Q 731.08 323.00 730.51 331.08
  Q 729.93 339.36 732.29 344.45
  Q 735.90 352.22 738.46 355.05
  Q 742.92 359.99 751.43 362.55
  Z"
/>
<path fill="#ffffff" d="
  M 1163.30 327.82
  C 1165.29 335.40 1162.09 344.72 1158.28 351.49
  Q 1156.35 354.94 1154.04 356.77
  Q 1149.63 360.28 1144.57 362.07
  Q 1141.08 363.30 1134.01 363.82
  Q 1118.24 364.98 1116.25 364.91
  Q 1096.27 364.26 1075.23 364.51
  Q 1067.19 364.60 1057.33 364.45
  Q 1044.66 364.26 1039.41 364.47
  C 1028.43 364.92 1017.49 364.18 1006.00 364.41
  Q 993.30 364.66 986.00 364.57
  Q 961.42 364.26 957.25 364.33
  Q 943.85 364.56 935.58 364.42
  C 929.47 364.32 923.37 364.67 917.25 364.69
  Q 861.94 364.78 770.75 364.62
  Q 759.67 364.60 756.50 364.07
  Q 755.27 363.87 751.43 362.55
  Q 742.92 359.99 738.46 355.05
  Q 735.90 352.22 732.29 344.45
  Q 729.93 339.36 730.51 331.08
  Q 731.08 323.00 736.33 316.57
  C 739.76 312.36 744.53 308.05 750.01 306.37
  C 758.43 303.79 766.27 304.02 775.25 304.04
  Q 926.37 304.25 1077.49 304.22
  C 1090.20 304.22 1106.86 304.52 1122.00 304.26
  Q 1127.70 304.15 1138.77 305.41
  Q 1144.58 306.07 1149.04 308.77
  Q 1152.95 311.14 1156.98 315.74
  Q 1161.57 320.98 1163.30 327.82
  Z"
/>
<path fill="#005abf" d="
  M 751.43 362.55
  Q 755.27 363.87 756.50 364.07
  Q 759.67 364.60 770.75 364.62
  Q 861.94 364.78 917.25 364.69
  C 923.37 364.67 929.47 364.32 935.58 364.42
  Q 943.85 364.56 957.25 364.33
  Q 961.42 364.26 986.00 364.57
  Q 993.30 364.66 1006.00 364.41
  C 1017.49 364.18 1028.43 364.92 1039.41 364.47
  Q 1044.66 364.26 1057.33 364.45
  Q 1067.19 364.60 1075.23 364.51
  Q 1096.27 364.26 1116.25 364.91
  Q 1118.24 364.98 1134.01 363.82
  Q 1141.08 363.30 1144.57 362.07
  Q 1149.63 360.28 1154.04 356.77
  Q 1156.35 354.94 1158.28 351.49
  C 1162.09 344.72 1165.29 335.40 1163.30 327.82
  Q 1164.98 326.11 1167.86 327.87
  Q 1169.24 328.71 1170.81 330.40
  Q 1172.17 331.87 1173.43 332.84
  C 1185.74 342.23 1183.79 359.03 1176.26 371.02
  C 1171.85 378.05 1163.46 381.25 1155.29 382.10
  Q 1143.53 383.31 1132.26 383.28
  Q 1130.46 383.27 1102.00 383.17
  Q 1089.45 383.12 1048.05 382.94
  C 1029.02 382.86 1011.06 383.29 993.19 382.95
  Q 987.61 382.84 973.20 382.95
  Q 956.69 383.06 919.50 383.15
  Q 805.58 383.43 805.17 383.43
  Q 794.87 383.42 788.98 383.04
  Q 777.06 382.27 772.85 381.25
  C 762.79 378.81 754.38 372.76 751.43 362.55
  Z"
/>
<path fill="#000000" d="
  M 1523.46 362.60
  Q 1614.40 362.65 1638.10 362.77
  A 0.75 0.75 0.0 0 1 1638.85 363.52
  L 1638.85 431.92
  Q 1638.85 433.19 1637.58 433.19
  L 1562.38 433.19
  A 0.85 0.85 0.0 0 0 1561.53 434.04
  L 1561.53 655.19
  A 0.89 0.88 -0.1 0 1 1560.65 656.07
  Q 1547.03 656.11 1523.29 656.09
  Q 1499.55 656.08 1485.93 656.03
  A 0.89 0.88 0.2 0 1 1485.05 655.15
  L 1485.30 434.00
  A 0.85 0.85 0.0 0 0 1484.46 433.15
  L 1409.26 433.06
  Q 1407.99 433.06 1407.99 431.79
  L 1408.07 363.39
  A 0.75 0.75 0.0 0 1 1408.82 362.63
  Q 1432.52 362.54 1523.46 362.60
  Z"
/>
<path fill="#000000" d="
  M 1769.18 477.43
  L 1854.43 477.43
  A 0.83 0.83 0.0 0 1 1855.16 478.66
  L 1820.72 541.99
  A 0.83 0.83 0.0 0 1 1819.99 542.42
  L 1769.20 542.42
  A 0.83 0.83 0.0 0 0 1768.37 543.25
  L 1768.37 584.60
  A 0.83 0.83 0.0 0 0 1769.20 585.43
  L 1896.51 585.43
  A 0.83 0.83 0.0 0 1 1897.34 586.26
  L 1897.34 655.27
  A 0.83 0.83 0.0 0 1 1896.51 656.10
  L 1693.40 656.10
  A 0.83 0.83 0.0 0 1 1692.57 655.27
  L 1692.57 363.47
  A 0.83 0.83 0.0 0 1 1693.40 362.64
  L 1896.49 362.64
  A 0.83 0.83 0.0 0 1 1897.32 363.47
  L 1897.32 432.10
  A 0.83 0.83 0.0 0 1 1896.49 432.93
  L 1769.18 432.93
  A 0.83 0.83 0.0 0 0 1768.35 433.76
  L 1768.35 476.60
  A 0.83 0.83 0.0 0 0 1769.18 477.43
  Z"
/>
<path fill="#000000" d="
  M 2430.73 656.09
  L 2356.31 656.09
  A 0.92 0.92 0.0 0 1 2355.39 655.17
  L 2355.39 434.08
  A 0.92 0.92 0.0 0 0 2354.47 433.16
  L 2278.89 433.16
  A 0.92 0.92 0.0 0 1 2277.97 432.24
  L 2277.97 363.53
  A 0.92 0.92 0.0 0 1 2278.89 362.61
  L 2506.43 362.61
  A 0.92 0.92 0.0 0 1 2507.35 363.53
  L 2507.35 432.25
  A 0.92 0.92 0.0 0 1 2506.43 433.17
  L 2432.57 433.17
  A 0.92 0.92 0.0 0 0 2431.65 434.09
  L 2431.65 655.17
  A 0.92 0.92 0.0 0 1 2430.73 656.09
  Z"
/>
<path fill="#000000" d="
  M 2087.07 462.09
  Q 2087.30 462.07 2087.46 461.76
  Q 2105.23 426.76 2137.86 363.80
  A 1.75 1.75 0.0 0 1 2139.41 362.86
  L 2223.76 362.86
  A 0.98 0.98 0.0 0 1 2224.61 364.32
  L 2143.80 508.77
  A 2.64 2.62 -45.2 0 0 2143.80 511.34
  L 2224.71 655.21
  A 0.59 0.59 0.0 0 1 2224.20 656.09
  L 2138.77 656.09
  A 1.18 1.18 0.0 0 1 2137.72 655.45
  L 2087.36 558.17
  A 0.33 0.33 0.0 0 0 2086.78 558.17
  L 2038.43 654.78
  A 2.40 2.39 13.2 0 1 2036.29 656.10
  L 1950.99 656.10
  A 0.54 0.53 -75.2 0 1 1950.53 655.30
  L 2032.05 511.15
  A 2.25 2.25 0.0 0 0 2032.05 508.93
  L 1950.28 363.54
  A 0.45 0.45 0.0 0 1 1950.67 362.87
  L 2036.29 362.87
  Q 2037.50 362.87 2038.04 363.96
  L 2086.79 461.93
  Q 2086.88 462.11 2087.07 462.09
  Z"
/>
<path fill="#e8e9ea" d="
  M 665.07 425.23
  Q 666.09 425.47 667.79 425.76
  Q 669.00 425.97 670.53 426.61
  Q 682.66 431.67 692.29 439.35
  Q 702.36 447.39 710.10 456.89
  Q 712.42 459.74 714.90 464.42
  Q 716.57 467.59 718.99 472.35
  Q 720.11 474.56 720.85 477.19
  C 721.48 479.40 723.01 480.94 723.36 483.52
  Q 724.02 488.50 725.58 492.67
  C 726.47 495.07 726.67 498.62 726.67 500.76
  Q 726.52 633.06 726.68 879.01
  C 726.68 882.48 726.44 885.12 725.30 888.61
  Q 723.69 893.55 723.49 896.85
  Q 723.33 899.66 722.16 901.80
  Q 720.97 903.96 720.29 906.92
  Q 719.90 908.61 718.31 910.94
  C 717.24 912.51 716.60 914.84 715.64 916.48
  Q 713.25 920.55 710.89 924.63
  Q 709.27 927.43 704.41 932.42
  Q 691.25 945.92 673.97 954.21
  Q 669.35 956.43 665.74 957.14
  Q 662.35 957.81 660.10 958.74
  Q 657.98 959.61 654.37 959.77
  Q 650.68 959.94 643.68 960.44
  Q 638.10 960.84 633.00 960.85
  Q 546.98 960.98 471.86 960.65
  Q 460.23 960.60 459.64 960.64
  Q 453.49 961.05 447.57 963.06
  Q 443.25 964.53 439.55 967.08
  Q 434.06 970.86 434.01 970.89
  C 430.36 973.22 426.48 976.36 422.69 978.67
  Q 414.90 983.43 411.97 985.42
  Q 405.34 989.94 401.43 992.41
  Q 391.03 998.96 380.17 1006.79
  Q 377.28 1008.88 372.89 1011.67
  C 369.48 1013.83 366.60 1016.07 363.19 1018.23
  Q 357.61 1021.77 353.76 1024.43
  Q 348.38 1028.14 344.41 1030.69
  Q 323.02 1044.42 310.72 1052.48
  Q 309.02 1053.59 308.33 1053.60
  Q 306.27 1053.66 306.28 1051.60
  Q 306.40 1010.36 306.16 987.39
  C 306.14 985.41 305.88 982.27 304.40 979.78
  Q 303.48 978.22 302.64 976.16
  C 301.38 973.07 299.77 971.99 296.65 968.86
  Q 294.88 967.08 292.59 966.17
  C 290.41 965.29 289.00 964.13 286.43 963.51
  Q 275.13 960.80 259.77 960.77
  Q 201.80 960.69 163.76 960.76
  Q 154.94 960.77 138.70 959.73
  Q 134.06 959.43 131.00 958.22
  Q 128.53 957.24 125.84 956.68
  Q 124.13 956.32 120.75 954.72
  Q 113.33 951.22 112.12 950.38
  Q 108.95 948.18 106.57 946.82
  C 100.12 943.14 94.94 937.68 89.09 931.78
  Q 83.16 925.80 79.32 919.01
  Q 74.76 910.98 70.74 900.17
  Q 70.72 900.12 69.52 895.73
  Q 68.59 892.33 67.24 889.76
  Q 66.91 889.13 66.83 886.76
  Q 66.61 879.85 66.62 872.26
  Q 66.78 634.64 66.69 503.00
  Q 66.69 496.03 66.90 494.24
  C 67.21 491.65 68.81 488.92 69.39 486.38
  C 69.90 484.10 70.22 482.19 71.21 480.04
  C 72.71 476.76 73.47 473.26 75.11 470.35
  Q 79.94 461.76 80.71 460.72
  Q 90.48 447.42 103.69 437.75
  Q 107.05 435.29 112.62 432.17
  Q 119.28 428.43 121.89 427.13
  Q 124.52 425.83 127.81 425.42
  Q 128.30 425.36 128.70 425.06
  Q 131.25 423.14 132.42 423.09
  Q 141.36 422.67 151.48 420.35
  Q 152.75 420.06 153.97 420.07
  Q 155.91 420.09 156.50 420.08
  Q 169.48 419.94 261.00 420.36
  Q 280.11 420.44 283.55 420.44
  Q 297.97 420.42 363.55 420.27
  C 395.09 420.20 427.14 420.49 449.52 419.98
  Q 459.49 419.76 469.50 420.19
  C 480.53 420.67 495.41 420.06 506.17 420.10
  Q 574.06 420.36 638.00 419.79
  C 639.90 419.77 642.57 420.01 644.66 420.62
  Q 651.22 422.54 659.76 422.75
  Q 662.70 422.82 664.25 424.72
  A 1.54 1.49 -12.2 0 0 665.07 425.23
  Z
  M 456.71 612.85
  C 458.00 619.31 460.27 625.03 465.87 628.42
  Q 467.76 629.56 475.09 631.71
  Q 483.20 634.09 491.11 637.54
  Q 496.05 645.62 499.10 658.23
  Q 501.90 669.80 514.58 671.79
  Q 516.71 675.05 518.59 678.61
  Q 521.04 683.27 522.99 685.06
  Q 528.13 689.81 535.66 690.17
  Q 536.68 690.22 541.24 689.90
  Q 541.81 689.86 541.35 690.20
  Q 540.25 690.98 539.49 691.02
  Q 531.74 691.46 524.37 687.86
  Q 524.30 687.83 524.30 687.88
  Q 524.30 687.91 524.27 687.92
  Q 524.14 687.99 524.32 688.09
  Q 530.00 691.21 537.38 691.19
  Q 540.27 691.19 542.77 689.95
  Q 546.31 688.19 547.63 687.10
  Q 552.01 683.48 553.68 677.44
  Q 555.58 670.58 558.20 664.01
  Q 561.10 656.70 567.27 649.46
  C 572.53 643.28 577.30 639.11 584.46 636.25
  Q 593.34 632.70 602.43 630.30
  Q 607.80 628.88 610.05 625.56
  Q 614.01 619.70 614.44 617.97
  Q 615.93 611.94 613.66 606.14
  A 0.03 0.03 0.0 0 1 613.72 606.11
  Q 613.91 606.34 613.94 606.43
  Q 614.11 606.85 614.14 606.42
  Q 614.16 606.22 614.09 606.15
  C 612.73 604.83 611.94 602.56 610.63 601.23
  Q 604.50 595.02 596.51 594.81
  Q 596.33 583.17 587.37 577.95
  C 583.73 575.82 578.26 575.28 574.24 574.07
  Q 566.24 571.67 559.13 566.78
  Q 556.00 556.93 552.69 547.73
  Q 549.31 538.33 540.05 535.78
  Q 539.37 535.59 539.96 535.98
  Q 540.85 536.57 542.55 537.02
  Q 542.65 537.05 542.72 537.13
  Q 542.73 537.15 542.88 537.33
  Q 542.91 537.36 542.87 537.35
  L 536.79 535.92
  C 535.86 531.95 534.94 527.06 532.72 523.92
  Q 525.86 514.24 513.35 516.31
  Q 505.34 517.64 501.32 524.49
  Q 500.00 526.75 498.08 533.87
  Q 490.68 561.36 464.37 572.58
  C 460.06 574.42 455.51 575.24 450.03 576.56
  Q 444.37 577.92 440.38 584.67
  C 435.16 593.48 438.35 605.11 447.22 610.09
  C 449.87 611.57 453.56 612.24 456.71 612.85
  Z
  M 294.01 839.17
  Q 296.47 846.94 302.17 851.35
  Q 315.17 861.40 332.75 862.22
  Q 345.15 862.80 358.27 859.52
  A 0.25 0.21 49.6 0 0 358.27 859.09
  Q 358.20 859.06 358.21 858.85
  A 0.26 0.26 0.0 0 1 358.39 858.63
  Q 370.88 854.91 377.16 852.22
  Q 386.10 848.39 396.17 843.98
  Q 401.14 841.81 412.60 834.41
  Q 412.70 834.35 412.81 834.45
  L 412.82 834.46
  Q 412.92 834.55 412.76 834.65
  L 405.34 839.81
  A 0.05 0.05 0.0 0 0 405.34 839.90
  L 405.65 840.06
  Q 405.88 840.17 406.10 840.03
  Q 422.38 829.67 426.38 827.15
  C 431.09 824.18 434.56 825.53 438.96 828.59
  Q 460.22 843.38 484.53 853.36
  Q 487.77 854.69 492.80 856.15
  C 499.79 858.18 507.80 860.65 514.03 861.45
  Q 523.87 862.71 534.46 862.28
  Q 534.79 862.27 534.49 862.12
  L 533.97 861.86
  Q 533.34 861.55 534.03 861.44
  L 537.88 860.84
  Q 538.04 860.81 538.02 860.64
  L 537.98 860.37
  A 0.13 0.12 -9.1 0 0 537.83 860.27
  Q 527.57 861.66 520.17 861.06
  Q 517.09 860.81 509.17 858.81
  Q 509.14 858.80 509.14 858.82
  Q 509.14 858.83 509.13 858.84
  Q 509.13 858.88 509.17 858.88
  Q 509.82 858.88 510.21 858.84
  Q 510.81 858.79 511.22 858.93
  Q 520.22 861.81 530.17 860.48
  Q 540.22 859.14 547.36 857.26
  Q 552.84 855.81 556.77 853.01
  Q 567.80 845.11 572.30 832.05
  Q 576.10 821.02 574.99 808.45
  Q 573.81 794.98 569.76 783.32
  Q 565.41 770.77 562.19 764.11
  Q 556.86 753.07 555.09 749.23
  Q 552.28 743.14 549.54 738.58
  C 544.94 730.96 541.97 725.65 537.15 720.11
  Q 533.56 715.99 528.21 716.31
  Q 522.88 707.73 517.34 699.24
  Q 516.24 697.55 514.16 697.42
  Q 498.27 696.40 486.11 685.48
  Q 485.75 685.16 485.37 685.46
  Q 482.76 687.55 481.91 688.68
  Q 469.27 705.59 454.71 721.03
  Q 454.30 714.27 452.81 710.43
  Q 449.04 700.69 439.31 696.79
  Q 438.49 696.46 438.94 697.21
  Q 439.00 697.31 439.48 697.47
  Q 439.49 697.48 439.49 697.49
  Q 439.50 697.50 439.48 697.49
  L 435.64 696.32
  Q 431.59 677.34 411.54 676.16
  Q 421.57 666.82 431.61 658.17
  A 0.04 0.04 0.0 0 0 431.58 658.10
  Q 431.53 658.13 431.49 658.12
  Q 431.43 658.12 431.32 658.21
  Q 427.35 661.47 420.36 667.08
  Q 420.18 667.22 420.05 667.04
  L 419.89 666.82
  Q 419.85 666.77 419.90 666.73
  Q 431.24 656.64 439.23 650.72
  Q 443.31 647.69 443.00 642.90
  A 2.67 2.63 -68.1 0 0 442.33 641.30
  C 436.55 634.87 434.26 628.28 432.45 619.97
  Q 431.36 614.98 430.00 612.93
  Q 427.81 609.63 424.09 607.71
  Q 418.33 604.73 412.84 601.32
  L 411.63 594.80
  Q 411.53 594.29 411.10 593.98
  Q 397.97 584.69 381.24 575.52
  Q 364.41 566.30 345.74 560.47
  C 320.77 552.69 290.38 552.27 274.99 577.70
  C 269.58 586.64 267.81 598.80 268.58 609.23
  Q 269.54 622.43 273.92 635.59
  C 281.43 658.18 293.51 679.82 307.38 699.47
  A 0.48 0.47 44.5 0 1 307.39 700.01
  C 295.71 716.87 285.61 734.23 277.76 753.25
  C 270.87 769.97 265.98 790.23 269.70 807.99
  Q 274.18 829.31 294.01 839.17
  Z"
/>
<path fill="#ffffff" d="
  M 1162.55 450.50
  Q 1167.71 468.97 1154.13 480.88
  Q 1150.29 484.25 1143.28 487.15
  Q 1139.55 488.70 1134.54 488.98
  Q 1129.10 489.29 1125.50 489.29
  Q 1058.16 489.36 1004.25 489.35
  Q 871.85 489.34 795.36 489.51
  Q 794.73 489.51 793.17 489.31
  Q 791.41 489.08 790.94 489.21
  Q 790.37 489.36 790.12 489.71
  Q 789.90 490.01 789.71 490.12
  Q 789.22 490.41 789.10 489.85
  Q 789.00 489.42 788.72 488.97
  Q 786.32 482.66 785.21 475.94
  Q 784.54 471.85 783.64 469.89
  Q 781.86 466.01 781.53 463.53
  Q 781.25 461.39 779.72 458.25
  C 778.62 456.00 778.50 453.47 776.95 451.24
  Q 776.67 450.85 773.96 444.34
  Q 772.19 440.09 764.96 428.63
  Q 780.62 429.35 796.75 429.33
  Q 872.28 429.24 913.52 429.36
  C 922.29 429.39 929.80 429.99 938.83 429.68
  Q 943.18 429.53 957.50 429.86
  Q 961.90 429.96 987.75 429.65
  Q 994.45 429.57 1001.26 429.77
  Q 1011.66 430.09 1014.75 429.98
  Q 1032.84 429.33 1045.52 429.77
  Q 1051.89 429.99 1058.99 429.69
  C 1068.23 429.30 1077.76 429.89 1086.60 429.71
  Q 1091.63 429.61 1096.05 429.73
  Q 1101.45 429.88 1105.48 429.72
  Q 1119.77 429.17 1139.75 430.44
  Q 1142.17 430.60 1144.75 431.58
  Q 1153.45 434.90 1158.71 442.19
  Q 1159.52 443.31 1160.63 446.18
  Q 1161.49 448.43 1162.55 450.50
  Z"
/>
<path fill="#005abf" d="
  M 788.69 507.00
  L 788.72 488.97
  Q 789.00 489.42 789.10 489.85
  Q 789.22 490.41 789.71 490.12
  Q 789.90 490.01 790.12 489.71
  Q 790.37 489.36 790.94 489.21
  Q 791.41 489.08 793.17 489.31
  Q 794.73 489.51 795.36 489.51
  Q 871.85 489.34 1004.25 489.35
  Q 1058.16 489.36 1125.50 489.29
  Q 1129.10 489.29 1134.54 488.98
  Q 1139.55 488.70 1143.28 487.15
  Q 1150.29 484.25 1154.13 480.88
  Q 1167.71 468.97 1162.55 450.50
  Q 1166.83 451.24 1169.27 452.99
  Q 1172.17 455.06 1175.35 458.69
  Q 1178.46 462.24 1179.85 465.53
  Q 1183.73 474.75 1181.61 485.16
  Q 1180.67 489.79 1177.97 493.50
  Q 1169.72 504.82 1155.48 507.18
  Q 1150.84 507.95 1138.80 507.89
  Q 1129.42 507.84 1129.21 507.84
  Q 964.26 507.98 799.30 507.83
  Q 799.21 507.83 795.71 508.04
  Q 792.32 508.25 788.69 507.00
  Z"
/>
<path fill="#000000" d="
  M 536.79 535.92
  Q 542.54 555.29 559.13 566.78
  Q 566.24 571.67 574.24 574.07
  C 578.26 575.28 583.73 575.82 587.37 577.95
  Q 596.33 583.17 596.51 594.81
  C 595.87 602.71 590.92 609.79 582.97 611.64
  Q 577.62 612.89 575.83 613.35
  C 557.39 618.12 542.70 632.82 537.00 651.25
  Q 536.46 653.01 535.04 659.02
  Q 533.84 664.09 528.87 668.15
  Q 523.12 672.84 514.58 671.79
  Q 501.90 669.80 499.10 658.23
  Q 496.05 645.62 491.11 637.54
  Q 478.73 618.43 456.71 612.85
  C 453.56 612.24 449.87 611.57 447.22 610.09
  C 438.35 605.11 435.16 593.48 440.38 584.67
  Q 444.37 577.92 450.03 576.56
  C 455.51 575.24 460.06 574.42 464.37 572.58
  Q 490.68 561.36 498.08 533.87
  Q 500.00 526.75 501.32 524.49
  Q 505.34 517.64 513.35 516.31
  Q 525.86 514.24 532.72 523.92
  C 534.94 527.06 535.86 531.95 536.79 535.92
  Z"
/>
<path fill="#aeaeaf" d="
  M 559.13 566.78
  Q 542.54 555.29 536.79 535.92
  L 542.87 537.35
  Q 542.91 537.36 542.88 537.33
  Q 542.73 537.15 542.72 537.13
  Q 542.65 537.05 542.55 537.02
  Q 540.85 536.57 539.96 535.98
  Q 539.37 535.59 540.05 535.78
  Q 549.31 538.33 552.69 547.73
  Q 556.00 556.93 559.13 566.78
  Z"
/>
<path fill="#ffffff" d="
  M 1038.07 577.26
  Q 1039.50 582.34 1038.84 584.26
  Q 1037.75 587.43 1037.39 590.73
  Q 1037.02 594.01 1036.65 595.10
  Q 1036.23 596.33 1034.59 599.10
  Q 1029.84 607.16 1021.07 610.74
  Q 1017.57 612.17 1013.64 612.28
  Q 1009.96 612.39 1006.00 612.94
  Q 1002.12 613.49 994.49 613.49
  Q 891.76 613.57 789.02 613.49
  L 788.76 553.62
  Q 882.97 553.76 977.25 553.60
  Q 999.79 553.57 1010.72 554.18
  C 1012.80 554.30 1014.42 554.31 1016.12 554.90
  Q 1021.58 556.82 1026.55 559.77
  Q 1030.75 562.26 1033.76 567.07
  Q 1036.79 571.90 1038.07 577.26
  Z"
/>
<path fill="#000000" d="
  M 412.84 601.32
  Q 415.45 615.97 426.15 626.31
  Q 426.52 626.67 426.31 627.15
  Q 425.63 628.71 423.96 629.98
  Q 383.94 660.20 352.12 699.20
  A 0.86 0.85 -45.3 0 0 352.12 700.27
  Q 363.46 714.42 376.38 727.32
  Q 393.24 744.76 412.14 760.23
  A 0.53 0.53 0.0 0 0 412.81 760.22
  L 434.60 741.26
  L 454.71 721.03
  Q 469.27 705.59 481.91 688.68
  Q 482.76 687.55 485.37 685.46
  Q 485.75 685.16 486.11 685.48
  Q 498.27 696.40 514.16 697.42
  Q 516.24 697.55 517.34 699.24
  Q 522.88 707.73 528.21 716.31
  Q 537.84 731.58 546.76 752.70
  Q 555.99 774.56 556.43 793.22
  Q 556.74 806.47 552.71 816.24
  C 545.47 833.78 529.43 842.95 510.75 843.56
  Q 500.51 843.89 492.67 842.34
  C 464.05 836.68 437.10 821.88 412.92 804.88
  A 0.72 0.71 -44.2 0 0 412.09 804.87
  C 389.74 820.38 365.97 833.75 340.36 840.56
  Q 324.52 844.76 308.52 843.19
  Q 302.09 842.57 294.01 839.17
  Q 274.18 829.31 269.70 807.99
  C 265.98 790.23 270.87 769.97 277.76 753.25
  C 285.61 734.23 295.71 716.87 307.39 700.01
  A 0.48 0.47 44.5 0 0 307.38 699.47
  C 293.51 679.82 281.43 658.18 273.92 635.59
  Q 269.54 622.43 268.58 609.23
  C 267.81 598.80 269.58 586.64 274.99 577.70
  C 290.38 552.27 320.77 552.69 345.74 560.47
  Q 364.41 566.30 381.24 575.52
  Q 397.97 584.69 411.10 593.98
  Q 411.53 594.29 411.63 594.80
  L 412.84 601.32
  Z
  M 333.78 666.21
  Q 354.68 642.45 378.59 621.55
  L 382.51 618.04
  A 0.58 0.58 0.0 0 0 382.44 617.13
  Q 365.48 605.86 346.54 597.98
  Q 338.99 594.83 328.94 592.37
  Q 319.24 589.99 310.80 591.74
  C 304.00 593.14 303.22 600.71 303.63 606.37
  C 304.48 618.03 308.45 629.44 313.30 639.96
  Q 320.52 655.61 329.91 669.98
  A 0.46 0.46 0.0 0 0 330.65 670.02
  L 333.78 666.21
  Z
  M 323.04 808.20
  Q 328.65 807.45 334.11 805.82
  Q 347.39 801.86 359.68 795.57
  C 367.16 791.75 375.23 787.30 382.52 782.38
  A 0.48 0.48 0.0 0 0 382.56 781.63
  Q 365.50 766.76 349.50 750.44
  L 330.49 729.35
  Q 330.25 729.08 330.06 729.38
  Q 316.87 749.23 308.82 770.56
  Q 304.70 781.51 303.69 792.38
  C 303.36 795.95 303.78 800.80 305.15 803.69
  C 307.80 809.33 317.79 808.89 323.04 808.20
  Z
  M 467.39 796.50
  Q 478.15 802.14 492.26 806.19
  Q 502.51 809.13 510.75 808.40
  C 515.43 807.98 519.00 806.63 520.42 801.93
  Q 521.38 798.72 521.28 795.00
  Q 520.97 783.85 517.02 773.45
  Q 511.78 759.63 508.52 753.16
  Q 502.55 740.76 494.80 729.33
  A 0.21 0.21 0.0 0 0 494.47 729.31
  Q 470.79 757.16 442.42 781.34
  A 0.68 0.68 0.0 0 0 442.48 782.42
  Q 454.37 790.31 467.39 796.50
  Z"
/>
<path fill="#005abf" d="
  M 789.00 631.71
  L 789.02 613.49
  Q 891.76 613.57 994.49 613.49
  Q 1002.12 613.49 1006.00 612.94
  Q 1009.96 612.39 1013.64 612.28
  Q 1017.57 612.17 1021.07 610.74
  Q 1029.84 607.16 1034.59 599.10
  Q 1036.23 596.33 1036.65 595.10
  Q 1037.02 594.01 1037.39 590.73
  Q 1037.75 587.43 1038.84 584.26
  Q 1039.50 582.34 1038.07 577.26
  Q 1042.59 575.69 1046.34 578.89
  Q 1047.71 580.06 1051.35 584.81
  Q 1054.20 588.52 1055.32 591.36
  Q 1058.15 598.50 1056.86 605.29
  Q 1056.71 606.05 1055.51 611.57
  Q 1054.87 614.52 1053.21 617.49
  Q 1049.50 624.12 1042.16 628.08
  Q 1037.55 630.58 1027.90 631.20
  Q 1015.30 632.02 1010.26 632.02
  Q 924.51 631.88 814.25 631.97
  Q 803.72 631.98 797.00 632.19
  Q 795.36 632.24 793.02 631.96
  Q 791.04 631.72 789.00 631.71
  Z"
/>
<path fill="#aeaeaf" d="
  M 378.59 621.55
  Q 376.27 620.27 373.86 619.43
  A 0.09 0.08 66.6 0 0 373.80 619.59
  Q 373.94 619.66 374.07 619.81
  A 0.13 0.13 0.0 0 1 373.93 620.02
  Q 368.24 618.01 351.24 612.64
  Q 341.27 609.48 333.41 610.42
  Q 323.71 611.58 323.13 622.03
  C 322.64 630.87 324.92 639.00 327.73 647.11
  Q 330.43 654.88 334.24 662.49
  Q 334.33 662.67 334.15 662.76
  L 333.91 662.89
  Q 333.81 662.94 333.76 662.84
  Q 329.04 654.54 324.74 641.25
  Q 321.27 630.55 322.14 620.71
  Q 322.59 615.68 326.34 611.17
  Q 326.53 610.94 326.23 610.89
  L 325.94 610.85
  Q 325.91 610.84 325.89 610.87
  Q 321.08 616.62 321.33 623.97
  Q 321.79 637.60 327.29 650.55
  Q 330.60 658.34 333.78 666.21
  L 330.65 670.02
  A 0.46 0.46 0.0 0 1 329.91 669.98
  Q 320.52 655.61 313.30 639.96
  C 308.45 629.44 304.48 618.03 303.63 606.37
  C 303.22 600.71 304.00 593.14 310.80 591.74
  Q 319.24 589.99 328.94 592.37
  Q 338.99 594.83 346.54 597.98
  Q 365.48 605.86 382.44 617.13
  A 0.58 0.58 0.0 0 1 382.51 618.04
  L 378.59 621.55
  Z"
/>
<path fill="#aeaeaf" d="
  M 514.58 671.79
  Q 523.12 672.84 528.87 668.15
  Q 533.84 664.09 535.04 659.02
  Q 536.46 653.01 537.00 651.25
  C 542.70 632.82 557.39 618.12 575.83 613.35
  Q 577.62 612.89 582.97 611.64
  C 590.92 609.79 595.87 602.71 596.51 594.81
  Q 604.50 595.02 610.63 601.23
  C 611.94 602.56 612.73 604.83 614.09 606.15
  Q 614.16 606.22 614.14 606.42
  Q 614.11 606.85 613.94 606.43
  Q 613.91 606.34 613.72 606.11
  A 0.03 0.03 0.0 0 0 613.66 606.14
  Q 615.93 611.94 614.44 617.97
  Q 614.01 619.70 610.05 625.56
  Q 607.80 628.88 602.43 630.30
  Q 593.34 632.70 584.46 636.25
  C 577.30 639.11 572.53 643.28 567.27 649.46
  Q 561.10 656.70 558.20 664.01
  Q 555.58 670.58 553.68 677.44
  Q 552.01 683.48 547.63 687.10
  Q 546.31 688.19 542.77 689.95
  Q 540.27 691.19 537.38 691.19
  Q 530.00 691.21 524.32 688.09
  Q 524.14 687.99 524.27 687.92
  Q 524.30 687.91 524.30 687.88
  Q 524.30 687.83 524.37 687.86
  Q 531.74 691.46 539.49 691.02
  Q 540.25 690.98 541.35 690.20
  Q 541.81 689.86 541.24 689.90
  Q 536.68 690.22 535.66 690.17
  Q 528.13 689.81 522.99 685.06
  Q 521.04 683.27 518.59 678.61
  Q 516.71 675.05 514.58 671.79
  Z"
/>
<path fill="#aeaeaf" d="
  M 411.54 676.16
  Q 403.87 676.86 398.17 681.18
  Q 389.33 687.89 388.94 700.01
  Q 386.58 701.17 384.75 703.11
  Q 379.66 708.51 375.67 713.90
  Q 374.24 715.83 374.15 718.28
  Q 374.10 719.63 375.12 722.57
  Q 375.93 724.89 376.38 727.32
  Q 363.46 714.42 352.12 700.27
  A 0.86 0.85 -45.3 0 1 352.12 699.20
  Q 383.94 660.20 423.96 629.98
  Q 425.63 628.71 426.31 627.15
  Q 426.52 626.67 426.15 626.31
  Q 415.45 615.97 412.84 601.32
  Q 418.33 604.73 424.09 607.71
  Q 427.81 609.63 430.00 612.93
  Q 431.36 614.98 432.45 619.97
  C 434.26 628.28 436.55 634.87 442.33 641.30
  A 2.67 2.63 -68.1 0 1 443.00 642.90
  Q 443.31 647.69 439.23 650.72
  Q 431.24 656.64 419.90 666.73
  Q 419.85 666.77 419.89 666.82
  L 420.05 667.04
  Q 420.18 667.22 420.36 667.08
  Q 427.35 661.47 431.32 658.21
  Q 431.43 658.12 431.49 658.12
  Q 431.53 658.13 431.58 658.10
  A 0.04 0.04 0.0 0 1 431.61 658.17
  Q 421.57 666.82 411.54 676.16
  Z"
/>
<path fill="#e8e9ea" d="
  M 378.59 621.55
  Q 354.68 642.45 333.78 666.21
  Q 330.60 658.34 327.29 650.55
  Q 321.79 637.60 321.33 623.97
  Q 321.08 616.62 325.89 610.87
  Q 325.91 610.84 325.94 610.85
  L 326.23 610.89
  Q 326.53 610.94 326.34 611.17
  Q 322.59 615.68 322.14 620.71
  Q 321.27 630.55 324.74 641.25
  Q 329.04 654.54 333.76 662.84
  Q 333.81 662.94 333.91 662.89
  L 334.15 662.76
  Q 334.33 662.67 334.24 662.49
  Q 330.43 654.88 327.73 647.11
  C 324.92 639.00 322.64 630.87 323.13 622.03
  Q 323.71 611.58 333.41 610.42
  Q 341.27 609.48 351.24 612.64
  Q 368.24 618.01 373.93 620.02
  A 0.13 0.13 0.0 0 0 374.07 619.81
  Q 373.94 619.66 373.80 619.59
  A 0.09 0.08 66.6 0 1 373.86 619.43
  Q 376.27 620.27 378.59 621.55
  Z"
/>
<path fill="#aeaeaf" d="
  M 491.11 637.54
  Q 483.20 634.09 475.09 631.71
  Q 467.76 629.56 465.87 628.42
  C 460.27 625.03 458.00 619.31 456.71 612.85
  Q 478.73 618.43 491.11 637.54
  Z"
/>
<path fill="#000000" d="
  M 435.64 696.32
  C 437.72 713.05 423.94 725.61 407.49 722.73
  Q 390.25 717.79 388.94 700.01
  Q 389.33 687.89 398.17 681.18
  Q 403.87 676.86 411.54 676.16
  Q 431.59 677.34 435.64 696.32
  Z"
/>
<path fill="#aeaeaf" d="
  M 454.71 721.03
  L 434.60 741.26
  Q 420.05 742.35 411.80 731.24
  Q 410.11 728.95 407.49 722.73
  C 423.94 725.61 437.72 713.05 435.64 696.32
  L 439.48 697.49
  Q 439.50 697.50 439.49 697.49
  Q 439.49 697.48 439.48 697.47
  Q 439.00 697.31 438.94 697.21
  Q 438.49 696.46 439.31 696.79
  Q 449.04 700.69 452.81 710.43
  Q 454.30 714.27 454.71 721.03
  Z"
/>
<path fill="#e8e9ea" d="
  M 388.94 700.01
  Q 390.25 717.79 407.49 722.73
  Q 410.11 728.95 411.80 731.24
  Q 420.05 742.35 434.60 741.26
  L 412.81 760.22
  A 0.53 0.53 0.0 0 1 412.14 760.23
  Q 393.24 744.76 376.38 727.32
  Q 375.93 724.89 375.12 722.57
  Q 374.10 719.63 374.15 718.28
  Q 374.24 715.83 375.67 713.90
  Q 379.66 708.51 384.75 703.11
  Q 386.58 701.17 388.94 700.01
  Z"
/>
<path fill="#aeaeaf" d="
  M 294.01 839.17
  Q 302.09 842.57 308.52 843.19
  Q 324.52 844.76 340.36 840.56
  C 365.97 833.75 389.74 820.38 412.09 804.87
  A 0.72 0.71 -44.2 0 1 412.92 804.88
  C 437.10 821.88 464.05 836.68 492.67 842.34
  Q 500.51 843.89 510.75 843.56
  C 529.43 842.95 545.47 833.78 552.71 816.24
  Q 556.74 806.47 556.43 793.22
  Q 555.99 774.56 546.76 752.70
  Q 537.84 731.58 528.21 716.31
  Q 533.56 715.99 537.15 720.11
  C 541.97 725.65 544.94 730.96 549.54 738.58
  Q 552.28 743.14 555.09 749.23
  Q 556.86 753.07 562.19 764.11
  Q 565.41 770.77 569.76 783.32
  Q 573.81 794.98 574.99 808.45
  Q 576.10 821.02 572.30 832.05
  Q 567.80 845.11 556.77 853.01
  Q 552.84 855.81 547.36 857.26
  Q 540.22 859.14 530.17 860.48
  Q 520.22 861.81 511.22 858.93
  Q 510.81 858.79 510.21 858.84
  Q 509.82 858.88 509.17 858.88
  Q 509.13 858.88 509.13 858.84
  Q 509.14 858.83 509.14 858.82
  Q 509.14 858.80 509.17 858.81
  Q 517.09 860.81 520.17 861.06
  Q 527.57 861.66 537.83 860.27
  A 0.13 0.12 -9.1 0 1 537.98 860.37
  L 538.02 860.64
  Q 538.04 860.81 537.88 860.84
  L 534.03 861.44
  Q 533.34 861.55 533.97 861.86
  L 534.49 862.12
  Q 534.79 862.27 534.46 862.28
  Q 523.87 862.71 514.03 861.45
  C 507.80 860.65 499.79 858.18 492.80 856.15
  Q 487.77 854.69 484.53 853.36
  Q 460.22 843.38 438.96 828.59
  C 434.56 825.53 431.09 824.18 426.38 827.15
  Q 422.38 829.67 406.10 840.03
  Q 405.88 840.17 405.65 840.06
  L 405.34 839.90
  A 0.05 0.05 0.0 0 1 405.34 839.81
  L 412.76 834.65
  Q 412.92 834.55 412.82 834.46
  L 412.81 834.45
  Q 412.70 834.35 412.60 834.41
  Q 401.14 841.81 396.17 843.98
  Q 386.10 848.39 377.16 852.22
  Q 370.88 854.91 358.39 858.63
  A 0.26 0.26 0.0 0 0 358.21 858.85
  Q 358.20 859.06 358.27 859.09
  A 0.25 0.21 49.6 0 1 358.27 859.52
  Q 345.15 862.80 332.75 862.22
  Q 315.17 861.40 302.17 851.35
  Q 296.47 846.94 294.01 839.17
  Z"
/>
<path fill="#000000" d="
  M 1454.57 761.30
  C 1452.76 764.25 1451.45 768.54 1452.74 771.78
  C 1455.29 778.18 1462.16 781.01 1468.44 782.81
  Q 1475.90 784.96 1483.60 786.36
  Q 1488.04 787.17 1501.96 792.16
  Q 1508.49 794.50 1515.14 799.76
  Q 1521.50 804.79 1525.17 810.43
  C 1532.26 821.34 1533.77 835.26 1531.75 848.01
  C 1529.28 863.56 1516.17 876.58 1502.28 883.51
  Q 1494.23 887.53 1486.44 889.33
  Q 1478.30 891.22 1469.83 891.62
  Q 1451.74 892.49 1435.10 884.17
  Q 1419.31 876.28 1408.98 862.20
  A 0.81 0.81 0.0 0 1 1409.08 861.13
  L 1434.69 836.85
  A 0.96 0.96 0.0 0 1 1436.09 836.93
  Q 1438.31 839.60 1439.72 840.77
  Q 1452.00 851.02 1468.55 852.32
  Q 1477.51 853.03 1484.61 848.87
  C 1489.47 846.03 1491.66 839.35 1488.46 834.60
  C 1485.38 830.03 1479.95 827.97 1474.30 825.97
  C 1469.04 824.11 1462.69 823.56 1457.04 822.50
  Q 1453.46 821.83 1449.40 820.34
  Q 1444.78 818.64 1441.86 817.65
  Q 1439.55 816.87 1432.28 811.98
  Q 1421.37 804.64 1415.38 793.28
  Q 1411.22 785.40 1410.43 776.22
  C 1409.45 764.79 1410.75 753.68 1417.31 744.20
  Q 1422.63 736.51 1427.75 732.79
  Q 1443.71 721.17 1464.01 719.59
  Q 1485.92 717.88 1505.88 726.90
  Q 1507.70 727.72 1512.17 730.91
  Q 1515.08 733.00 1517.75 735.41
  Q 1523.15 740.29 1527.53 745.47
  A 0.95 0.94 -39.2 0 1 1527.39 746.83
  L 1500.73 767.55
  A 0.77 0.77 0.0 0 1 1499.70 767.47
  Q 1492.47 759.62 1483.12 756.55
  C 1474.08 753.59 1466.28 752.53 1458.32 757.61
  Q 1455.88 759.17 1454.57 761.30
  Z"
/>
<path fill="#000000" d="
  M 2115.13 719.39
  C 2125.97 719.39 2136.07 720.92 2146.32 724.63
  Q 2164.34 731.14 2174.99 745.61
  C 2182.51 755.83 2185.10 767.12 2185.06 779.68
  Q 2185.05 785.35 2185.05 805.58
  Q 2185.05 825.81 2185.07 831.48
  C 2185.11 844.03 2182.53 855.32 2175.01 865.55
  Q 2164.36 880.02 2146.35 886.55
  C 2136.10 890.26 2126.00 891.79 2115.16 891.79
  C 2104.33 891.79 2094.23 890.27 2083.98 886.56
  Q 2065.96 880.04 2055.31 865.57
  C 2047.79 855.35 2045.20 844.06 2045.24 831.51
  Q 2045.25 825.84 2045.25 805.61
  Q 2045.24 785.38 2045.23 779.71
  C 2045.18 767.15 2047.77 755.86 2055.29 745.64
  Q 2065.93 731.16 2083.94 724.64
  C 2094.19 720.93 2104.29 719.40 2115.13 719.39
  Z
  M 2088.17 805.41
  Q 2088.15 831.21 2088.14 834.52
  Q 2088.12 838.32 2089.57 840.79
  Q 2093.15 846.87 2100.02 849.61
  Q 2106.98 852.40 2114.92 852.40
  Q 2122.86 852.41 2129.82 849.64
  Q 2136.70 846.90 2140.29 840.83
  Q 2141.74 838.36 2141.73 834.56
  Q 2141.72 831.25 2141.74 805.45
  Q 2141.76 779.65 2141.77 776.35
  Q 2141.79 772.55 2140.34 770.08
  Q 2136.76 764.00 2129.89 761.25
  Q 2122.93 758.47 2114.99 758.47
  Q 2107.05 758.46 2100.08 761.23
  Q 2093.21 763.97 2089.62 770.04
  Q 2088.17 772.51 2088.18 776.31
  Q 2088.19 779.61 2088.17 805.41
  Z"
/>
<path fill="#000000" d="
  M 2259.23 836.28
  A 0.74 0.73 -0.0 0 0 2258.49 837.01
  L 2258.49 888.66
  Q 2258.49 889.90 2257.25 889.90
  L 2216.06 889.90
  A 0.84 0.83 90.0 0 1 2215.23 889.06
  L 2215.23 722.50
  Q 2215.23 721.68 2216.05 721.68
  Q 2259.00 721.66 2283.76 721.67
  Q 2297.29 721.68 2310.62 726.08
  Q 2317.40 728.31 2322.66 731.80
  Q 2334.73 739.80 2340.22 753.49
  Q 2342.61 759.45 2343.45 763.66
  Q 2346.21 777.52 2343.77 792.82
  Q 2341.90 804.55 2336.69 813.00
  Q 2328.29 826.64 2312.99 831.65
  A 0.71 0.71 0.0 0 0 2312.65 832.76
  L 2328.79 853.53
  Q 2329.61 854.58 2328.84 855.67
  L 2305.01 889.27
  A 0.67 0.66 44.4 0 1 2303.93 889.28
  L 2265.97 836.76
  Q 2265.62 836.28 2265.02 836.28
  L 2259.23 836.28
  Z
  M 2258.38 762.58
  L 2258.50 799.10
  A 0.70 0.70 0.0 0 0 2259.21 799.79
  L 2283.95 799.71
  A 18.74 18.18 -0.2 0 0 2302.62 781.46
  L 2302.62 779.90
  A 18.74 18.18 -0.2 0 0 2283.81 761.79
  L 2259.07 761.87
  A 0.70 0.70 0.0 0 0 2258.38 762.58
  Z"
/>
<path fill="#000000" d="
  M 2441.03 721.43
  Q 2462.35 721.40 2506.06 721.34
  A 0.85 0.85 0.0 0 1 2506.91 722.19
  L 2506.91 761.23
  A 0.89 0.89 0.0 0 1 2506.02 762.12
  L 2463.59 762.12
  A 0.78 0.78 0.0 0 0 2462.81 762.90
  L 2462.81 889.07
  A 0.75 0.74 -0.1 0 1 2462.07 889.81
  Q 2453.92 889.89 2441.24 889.90
  Q 2428.57 889.92 2420.42 889.87
  A 0.75 0.74 -0.0 0 1 2419.68 889.13
  L 2419.35 762.96
  A 0.78 0.78 0.0 0 0 2418.57 762.18
  L 2376.14 762.29
  A 0.89 0.89 0.0 0 1 2375.25 761.40
  L 2375.15 722.36
  A 0.85 0.85 0.0 0 1 2376.00 721.51
  Q 2419.71 721.46 2441.03 721.43
  Z"
/>
<path fill="#000000" d="
  M 1629.79 853.45
  C 1642.12 853.45 1653.58 846.73 1653.57 833.26
  Q 1653.51 755.96 1653.60 722.36
  A 0.69 0.69 0.0 0 1 1654.29 721.67
  L 1696.14 721.67
  Q 1696.83 721.67 1696.83 722.37
  Q 1696.76 807.98 1696.96 834.00
  Q 1697.09 851.66 1687.03 866.04
  Q 1679.08 877.41 1666.45 883.91
  Q 1653.31 890.66 1638.50 891.83
  Q 1635.95 892.03 1629.78 892.03
  Q 1623.62 892.03 1621.06 891.83
  Q 1606.25 890.65 1593.12 883.89
  Q 1580.49 877.38 1572.55 866.01
  Q 1562.50 851.62 1562.64 833.96
  Q 1562.85 807.94 1562.83 722.33
  Q 1562.83 721.63 1563.52 721.63
  L 1605.37 721.66
  A 0.69 0.69 0.0 0 1 1606.06 722.35
  Q 1606.13 755.95 1606.02 833.25
  C 1606.01 846.72 1617.47 853.44 1629.79 853.45
  Z"
/>
<path fill="#000000" d="
  M 1769.97 841.42
  L 1769.97 888.72
  Q 1769.97 889.92 1768.78 889.91
  L 1728.11 889.91
  A 0.97 0.97 0.0 0 1 1727.14 888.94
  L 1727.16 722.48
  A 0.79 0.79 0.0 0 1 1727.95 721.69
  Q 1752.33 721.61 1794.10 721.64
  Q 1809.61 721.64 1821.87 726.99
  Q 1831.20 731.06 1838.38 738.10
  Q 1849.90 749.40 1853.76 764.33
  Q 1860.23 789.35 1848.32 811.46
  Q 1843.52 820.38 1835.60 827.16
  Q 1828.54 833.21 1818.31 836.80
  Q 1807.02 840.76 1793.36 840.77
  Q 1777.69 840.78 1770.71 840.69
  Q 1769.97 840.68 1769.97 841.42
  Z
  M 1769.88 762.74
  L 1770.02 801.90
  A 0.88 0.88 0.0 0 0 1770.90 802.77
  L 1795.21 802.69
  A 19.59 18.21 89.8 0 0 1813.35 783.03
  L 1813.35 781.29
  A 19.59 18.21 89.8 0 0 1795.07 761.77
  L 1770.76 761.85
  A 0.88 0.88 0.0 0 0 1769.88 762.74
  Z"
/>
<path fill="#000000" d="
  M 1929.15 841.39
  L 1929.15 888.67
  Q 1929.15 889.86 1927.96 889.86
  L 1887.32 889.86
  A 0.97 0.97 0.0 0 1 1886.35 888.89
  L 1886.35 722.53
  A 0.79 0.79 0.0 0 1 1887.14 721.74
  Q 1911.50 721.66 1953.25 721.68
  Q 1968.75 721.68 1981.00 727.03
  Q 1990.33 731.09 1997.50 738.13
  Q 2009.02 749.42 2012.88 764.34
  Q 2019.35 789.34 2007.45 811.44
  Q 2002.65 820.36 1994.74 827.13
  Q 1987.68 833.18 1977.46 836.77
  Q 1966.18 840.73 1952.52 840.74
  Q 1936.86 840.75 1929.89 840.66
  Q 1929.15 840.65 1929.15 841.39
  Z
  M 1929.09 762.55
  L 1929.09 801.95
  A 0.77 0.77 0.0 0 0 1929.86 802.72
  L 1953.81 802.72
  A 18.91 18.48 -90.0 0 0 1972.29 783.81
  L 1972.29 780.69
  A 18.91 18.48 90.0 0 0 1953.81 761.78
  L 1929.86 761.78
  A 0.77 0.77 0.0 0 0 1929.09 762.55
  Z"
/>
<path fill="#aeaeaf" d="
  M 349.50 750.44
  C 345.00 755.85 341.73 762.19 338.18 768.25
  Q 338.10 768.39 338.01 768.30
  L 338.00 768.29
  Q 337.94 768.23 338.06 768.02
  L 341.68 761.42
  Q 341.80 761.21 341.58 761.09
  L 341.33 760.95
  Q 341.28 760.93 341.26 760.97
  Q 336.55 767.29 334.06 773.17
  Q 330.04 782.69 325.90 794.36
  Q 323.98 799.75 323.04 808.20
  C 317.79 808.89 307.80 809.33 305.15 803.69
  C 303.78 800.80 303.36 795.95 303.69 792.38
  Q 304.70 781.51 308.82 770.56
  Q 316.87 749.23 330.06 729.38
  Q 330.25 729.08 330.49 729.35
  L 349.50 750.44
  Z"
/>
<path fill="#aeaeaf" d="
  M 508.52 753.16
  Q 501.37 762.47 496.19 767.69
  C 488.67 775.28 481.37 783.14 473.52 790.38
  Q 470.35 793.30 467.39 796.50
  Q 454.37 790.31 442.48 782.42
  A 0.68 0.68 0.0 0 1 442.42 781.34
  Q 470.79 757.16 494.47 729.31
  A 0.21 0.21 0.0 0 1 494.80 729.33
  Q 502.55 740.76 508.52 753.16
  Z"
/>
<path fill="#e8e9ea" d="
  M 349.50 750.44
  Q 365.50 766.76 382.56 781.63
  A 0.48 0.48 0.0 0 1 382.52 782.38
  C 375.23 787.30 367.16 791.75 359.68 795.57
  Q 347.39 801.86 334.11 805.82
  Q 328.65 807.45 323.04 808.20
  Q 323.98 799.75 325.90 794.36
  Q 330.04 782.69 334.06 773.17
  Q 336.55 767.29 341.26 760.97
  Q 341.28 760.93 341.33 760.95
  L 341.58 761.09
  Q 341.80 761.21 341.68 761.42
  L 338.06 768.02
  Q 337.94 768.23 338.00 768.29
  L 338.01 768.30
  Q 338.10 768.39 338.18 768.25
  C 341.73 762.19 345.00 755.85 349.50 750.44
  Z"
/>
<path fill="#e8e9ea" d="
  M 508.52 753.16
  Q 511.78 759.63 517.02 773.45
  Q 520.97 783.85 521.28 795.00
  Q 521.38 798.72 520.42 801.93
  C 519.00 806.63 515.43 807.98 510.75 808.40
  Q 502.51 809.13 492.26 806.19
  Q 478.15 802.14 467.39 796.50
  Q 470.35 793.30 473.52 790.38
  C 481.37 783.14 488.67 775.28 496.19 767.69
  Q 501.37 762.47 508.52 753.16
  Z"
/>
</svg>
